<svg id="svg" version="1.1" xmlns="http://www.w3.org/2000/svg" xmlns:xlink="http://www.w3.org/1999/xlink" width="400" height="254.54545454545456" viewBox="0, 0, 400,254.54545454545456"><g id="svgg"><path id="path0" d="M1.018 0.267 C 1.018 0.414,1.409 0.936,1.886 1.427 C 2.363 1.918,2.827 2.615,2.917 2.975 C 3.008 3.335,3.419 3.968,3.832 4.381 C 4.254 4.802,4.583 5.404,4.583 5.754 C 4.583 6.173,4.794 6.472,5.227 6.670 C 5.678 6.875,5.952 7.284,6.141 8.034 C 6.316 8.732,6.624 9.218,7.024 9.433 C 7.362 9.614,7.638 9.857,7.638 9.973 C 7.638 10.089,7.868 10.414,8.148 10.694 C 8.428 10.974,8.657 11.417,8.657 11.678 C 8.657 11.939,8.897 12.458,9.190 12.831 C 9.483 13.203,9.806 13.820,9.907 14.202 C 10.008 14.583,10.388 15.040,10.752 15.217 C 11.237 15.453,11.459 15.806,11.584 16.543 C 11.697 17.214,11.915 17.599,12.242 17.702 C 12.510 17.787,12.803 18.164,12.894 18.540 C 12.984 18.916,13.614 19.818,14.295 20.545 C 14.975 21.272,15.532 22.109,15.532 22.405 C 15.532 22.702,15.873 23.256,16.290 23.637 C 16.708 24.018,17.125 24.708,17.217 25.170 C 17.326 25.711,17.588 26.088,17.954 26.227 C 18.267 26.346,18.593 26.724,18.679 27.067 C 18.765 27.411,19.353 28.266,19.984 28.969 C 20.616 29.672,21.133 30.498,21.133 30.805 C 21.133 31.112,21.477 31.665,21.897 32.034 C 22.452 32.521,22.661 32.931,22.661 33.532 C 22.661 34.194,22.813 34.439,23.425 34.755 C 23.845 34.972,24.188 35.245,24.188 35.362 C 24.188 35.478,24.751 36.326,25.438 37.245 C 26.125 38.164,26.769 39.183,26.868 39.509 C 26.967 39.835,27.378 40.410,27.782 40.788 C 28.216 41.193,28.517 41.736,28.517 42.115 C 28.517 42.488,28.722 42.867,29.005 43.019 C 29.274 43.163,29.569 43.622,29.661 44.039 C 29.752 44.457,30.343 45.344,30.973 46.011 C 31.603 46.678,32.183 47.548,32.262 47.945 C 32.342 48.341,32.676 48.843,33.006 49.058 C 33.336 49.275,33.724 49.894,33.871 50.441 C 34.018 50.986,34.240 51.432,34.365 51.432 C 34.871 51.432,35.391 52.285,35.391 53.113 C 35.391 53.730,35.525 54.036,35.837 54.132 C 36.768 54.420,37.062 54.705,37.676 55.915 C 38.023 56.600,38.506 57.308,38.749 57.487 C 38.992 57.666,39.265 58.211,39.357 58.699 C 39.463 59.266,39.789 59.776,40.258 60.110 C 40.736 60.450,40.993 60.858,40.993 61.275 C 40.993 61.670,41.287 62.176,41.757 62.588 C 42.177 62.956,42.521 63.377,42.521 63.522 C 42.521 63.667,42.750 63.929,43.030 64.104 C 43.310 64.279,43.539 64.589,43.539 64.793 C 43.539 64.997,43.883 65.515,44.303 65.945 C 44.723 66.375,45.067 66.990,45.067 67.312 C 45.067 67.634,45.382 68.198,45.767 68.566 C 46.924 69.668,47.550 70.620,47.849 71.734 C 48.013 72.341,48.572 73.256,49.165 73.887 C 49.732 74.490,50.362 75.376,50.564 75.855 C 50.767 76.334,51.155 76.881,51.427 77.072 C 51.699 77.262,51.997 77.824,52.091 78.321 C 52.206 78.935,52.459 79.316,52.881 79.508 C 53.239 79.671,53.559 80.082,53.639 80.478 C 53.759 81.080,54.325 81.876,55.617 83.261 C 55.814 83.472,56.052 83.953,56.147 84.330 C 56.241 84.706,56.584 85.189,56.909 85.401 C 57.233 85.614,57.581 86.161,57.681 86.616 C 57.781 87.071,58.163 87.745,58.530 88.113 C 59.772 89.357,60.371 90.205,60.515 90.925 C 60.594 91.319,60.931 91.821,61.265 92.039 C 61.598 92.258,61.871 92.646,61.871 92.901 C 61.871 93.156,62.116 93.583,62.416 93.850 C 62.715 94.117,63.121 94.679,63.318 95.099 C 63.787 96.099,64.755 97.427,65.558 98.171 C 65.911 98.498,66.200 99.041,66.200 99.377 C 66.200 100.002,67.235 101.603,68.185 102.445 C 68.478 102.705,68.787 103.233,68.871 103.620 C 68.956 104.006,69.307 104.566,69.650 104.865 C 70.093 105.250,70.274 105.669,70.274 106.313 C 70.274 107.081,70.385 107.258,71.002 107.473 C 71.403 107.613,71.861 107.980,72.019 108.288 C 72.336 108.904,72.550 109.247,73.775 111.094 C 74.230 111.781,74.602 112.504,74.602 112.702 C 74.602 112.900,74.878 113.166,75.215 113.295 C 75.598 113.440,75.890 113.810,75.993 114.280 C 76.084 114.694,76.381 115.235,76.654 115.481 C 76.926 115.727,77.148 116.132,77.148 116.381 C 77.148 116.630,77.483 117.072,77.893 117.364 C 78.303 117.656,78.712 118.235,78.805 118.656 C 78.897 119.076,79.192 119.536,79.461 119.680 C 79.729 119.824,79.951 120.195,79.954 120.505 C 79.958 120.835,80.532 121.670,81.336 122.514 C 83.704 125.000,83.349 129.128,80.651 130.473 C 80.275 130.661,80.031 131.076,79.930 131.700 C 79.833 132.296,79.526 132.841,79.099 133.177 C 78.726 133.470,78.421 133.947,78.421 134.238 C 78.421 134.528,77.906 135.317,77.276 135.991 C 76.645 136.664,76.130 137.442,76.130 137.718 C 76.130 137.995,75.801 138.455,75.399 138.742 C 74.997 139.028,74.604 139.583,74.526 139.976 C 74.447 140.368,74.031 141.058,73.601 141.507 C 73.172 141.957,72.820 142.546,72.820 142.815 C 72.820 143.084,72.304 143.759,71.674 144.314 C 70.940 144.960,70.470 145.614,70.366 146.135 C 70.276 146.582,69.933 147.125,69.602 147.341 C 69.239 147.579,69.001 147.984,69.001 148.364 C 69.001 148.763,68.675 149.282,68.109 149.782 C 67.619 150.216,67.218 150.730,67.218 150.923 C 67.218 151.299,66.187 152.750,65.245 153.697 C 64.930 154.014,64.672 154.505,64.672 154.788 C 64.672 155.072,64.399 155.482,64.066 155.701 C 63.732 155.919,63.389 156.448,63.303 156.876 C 63.218 157.304,62.799 158.016,62.372 158.458 C 60.775 160.113,60.598 160.344,60.598 160.769 C 60.598 161.418,60.120 162.190,59.718 162.190 C 59.524 162.190,59.233 162.590,59.071 163.079 C 58.910 163.568,58.630 164.055,58.450 164.161 C 58.269 164.267,57.932 164.723,57.702 165.174 C 56.969 166.607,55.993 167.913,55.524 168.088 C 55.235 168.195,55.008 168.637,54.903 169.293 C 54.791 169.992,54.536 170.460,54.119 170.734 C 53.780 170.956,53.431 171.461,53.344 171.855 C 53.257 172.250,52.677 173.050,52.055 173.633 C 51.388 174.258,50.921 174.924,50.919 175.253 C 50.914 175.951,50.690 176.294,50.002 176.656 C 49.699 176.815,49.390 177.302,49.297 177.768 C 49.206 178.225,48.789 178.910,48.372 179.291 C 47.955 179.672,47.613 180.191,47.613 180.444 C 47.613 180.697,47.040 181.501,46.340 182.231 C 45.640 182.961,45.067 183.789,45.067 184.071 C 45.067 184.353,44.792 184.764,44.456 184.984 C 44.097 185.219,43.779 185.742,43.683 186.252 C 43.579 186.807,43.247 187.315,42.766 187.658 C 42.351 187.953,42.011 188.393,42.011 188.635 C 42.011 189.078,41.807 189.390,40.293 191.261 C 39.838 191.823,39.465 192.441,39.465 192.634 C 39.465 192.828,39.179 193.174,38.829 193.403 C 38.362 193.710,38.192 194.045,38.192 194.665 C 38.192 195.313,38.014 195.636,37.428 196.053 C 36.951 196.393,36.665 196.822,36.665 197.195 C 36.665 197.529,36.328 198.111,35.901 198.514 C 35.481 198.910,35.137 199.351,35.137 199.494 C 35.137 200.098,34.136 201.547,33.459 201.922 C 32.918 202.222,32.673 202.602,32.519 203.379 C 32.381 204.075,32.146 204.482,31.822 204.584 C 31.538 204.675,31.227 205.125,31.078 205.664 C 30.938 206.172,30.591 206.825,30.308 207.113 C 29.298 208.143,28.517 209.246,28.517 209.643 C 28.517 209.864,28.236 210.229,27.893 210.454 C 27.550 210.679,27.139 211.259,26.979 211.742 C 26.820 212.226,26.426 212.794,26.105 213.004 C 25.784 213.215,25.455 213.719,25.374 214.125 C 25.292 214.531,24.649 215.468,23.943 216.208 C 23.160 217.029,22.661 217.782,22.661 218.141 C 22.661 218.465,22.478 218.800,22.254 218.886 C 22.030 218.972,21.632 219.544,21.370 220.157 C 21.107 220.770,20.717 221.338,20.503 221.420 C 20.289 221.502,20.115 221.734,20.115 221.936 C 20.115 222.137,19.829 222.587,19.481 222.936 C 19.132 223.285,18.776 223.854,18.688 224.200 C 18.601 224.547,18.199 225.066,17.795 225.354 C 17.287 225.716,17.059 226.096,17.059 226.583 C 17.059 227.040,16.798 227.519,16.315 227.950 C 15.906 228.314,15.260 229.144,14.879 229.794 C 14.498 230.444,13.916 231.078,13.586 231.204 C 13.125 231.379,12.984 231.626,12.981 232.266 C 12.977 233.238,12.803 233.555,12.064 233.944 C 11.768 234.100,11.454 234.584,11.366 235.020 C 11.279 235.456,10.691 236.404,10.060 237.126 C 9.428 237.847,8.912 238.643,8.912 238.894 C 8.912 239.144,8.636 239.474,8.300 239.628 C 7.890 239.814,7.586 240.271,7.378 241.013 C 7.206 241.629,6.815 242.286,6.497 242.494 C 6.184 242.700,5.856 243.191,5.769 243.586 C 5.682 243.980,5.093 244.854,4.461 245.528 C 3.828 246.202,3.310 246.967,3.310 247.229 C 3.310 247.490,3.039 247.917,2.708 248.177 C 2.377 248.438,2.019 248.933,1.914 249.278 C 1.649 250.145,1.029 250.796,0.470 250.796 C 0.211 250.796,0.000 250.968,0.000 251.178 C 0.000 251.626,60.520 251.770,61.692 251.325 C 62.108 251.167,62.364 250.817,62.477 250.250 C 62.569 249.788,62.987 249.098,63.404 248.717 C 63.821 248.336,64.163 247.801,64.163 247.530 C 64.163 247.258,64.726 246.478,65.415 245.796 C 66.104 245.115,66.747 244.239,66.845 243.851 C 66.942 243.463,67.237 242.995,67.500 242.810 C 67.763 242.626,68.052 242.108,68.142 241.659 C 68.251 241.113,68.546 240.719,69.035 240.466 C 69.436 240.259,69.767 239.891,69.769 239.650 C 69.772 239.408,70.115 238.707,70.533 238.090 C 70.951 237.474,71.292 236.886,71.292 236.783 C 71.292 236.681,71.516 236.538,71.790 236.466 C 72.071 236.393,72.365 236.020,72.465 235.609 C 72.563 235.209,72.904 234.568,73.223 234.183 C 73.542 233.799,73.885 233.226,73.985 232.910 C 74.084 232.595,74.369 232.194,74.616 232.019 C 74.864 231.845,75.142 231.251,75.236 230.699 C 75.346 230.047,75.617 229.557,76.010 229.299 C 76.364 229.068,76.683 228.542,76.778 228.036 C 76.898 227.397,77.236 226.957,78.062 226.364 C 78.745 225.873,79.241 225.291,79.333 224.874 C 79.595 223.673,79.687 223.506,80.157 223.383 C 80.442 223.309,80.728 222.847,80.910 222.167 C 81.101 221.451,81.374 221.026,81.695 220.942 C 81.991 220.864,82.256 220.495,82.362 220.016 C 82.458 219.578,82.756 219.102,83.025 218.958 C 83.294 218.814,83.514 218.548,83.514 218.368 C 83.514 218.187,83.803 217.768,84.156 217.436 C 84.509 217.104,84.887 216.483,84.996 216.055 C 85.104 215.627,85.446 215.164,85.754 215.026 C 86.062 214.887,86.315 214.601,86.315 214.389 C 86.317 213.825,87.155 212.544,88.219 211.480 C 88.794 210.905,89.204 210.214,89.292 209.673 C 89.379 209.137,89.613 208.741,89.896 208.652 C 90.149 208.571,90.490 208.102,90.652 207.610 C 90.815 207.118,91.397 206.235,91.946 205.649 C 92.542 205.012,93.058 204.139,93.229 203.480 C 93.402 202.810,94.000 201.810,94.750 200.934 C 95.429 200.140,95.986 199.352,95.988 199.181 C 95.989 199.011,96.318 198.496,96.719 198.036 C 97.121 197.576,97.530 196.938,97.630 196.620 C 97.729 196.301,98.088 195.858,98.428 195.635 C 98.784 195.402,99.045 194.984,99.045 194.648 C 99.045 194.065,100.465 192.154,101.368 191.522 C 101.631 191.338,101.846 190.923,101.846 190.600 C 101.846 190.277,102.190 189.580,102.610 189.052 C 103.030 188.523,103.374 187.942,103.374 187.761 C 103.374 187.579,103.603 187.358,103.883 187.269 C 104.163 187.180,104.392 186.952,104.392 186.762 C 104.392 186.573,104.688 186.065,105.050 185.635 C 105.412 185.205,105.792 184.537,105.894 184.151 C 105.998 183.758,106.381 183.304,106.764 183.118 C 107.169 182.921,107.447 182.577,107.447 182.274 C 107.447 181.604,107.919 180.734,108.506 180.317 C 108.764 180.134,108.975 179.853,108.975 179.694 C 108.975 179.164,110.345 177.417,110.938 177.192 C 111.397 177.017,111.521 176.775,111.521 176.056 C 111.521 175.074,111.832 174.331,112.580 173.520 C 112.839 173.240,113.215 172.782,113.417 172.502 C 113.727 172.070,113.853 172.042,114.244 172.316 C 114.497 172.495,115.069 172.874,115.515 173.159 C 115.988 173.462,116.391 173.976,116.483 174.394 C 116.569 174.789,116.921 175.375,117.263 175.697 C 117.606 176.019,117.887 176.469,117.887 176.696 C 117.887 176.924,118.453 177.746,119.145 178.522 C 119.837 179.299,120.478 180.232,120.570 180.596 C 120.661 180.961,121.001 181.432,121.324 181.644 C 121.707 181.896,121.974 182.394,122.089 183.074 C 122.221 183.854,122.420 184.177,122.877 184.351 C 123.213 184.479,123.488 184.735,123.488 184.920 C 123.488 185.286,123.931 185.924,125.207 187.395 C 125.662 187.920,126.107 188.716,126.197 189.166 C 126.304 189.702,126.567 190.061,126.961 190.211 C 127.454 190.398,127.562 190.622,127.562 191.456 C 127.562 192.272,127.684 192.537,128.178 192.799 C 128.780 193.118,130.363 194.922,130.363 195.290 C 130.363 195.391,130.707 195.907,131.127 196.435 C 131.547 196.964,131.891 197.603,131.891 197.856 C 131.891 198.109,132.137 198.489,132.438 198.700 C 132.995 199.090,133.867 200.377,134.549 201.815 C 134.757 202.253,135.108 202.681,135.330 202.766 C 135.551 202.851,135.902 203.326,136.109 203.822 C 136.316 204.317,136.712 204.949,136.989 205.225 C 137.266 205.502,137.492 205.946,137.492 206.212 C 137.492 206.478,138.065 207.281,138.765 207.996 C 139.465 208.711,140.038 209.521,140.038 209.795 C 140.038 210.070,140.439 210.696,140.929 211.186 C 141.419 211.676,141.820 212.248,141.820 212.458 C 141.820 212.667,142.046 213.049,142.323 213.306 C 142.599 213.563,143.124 214.341,143.489 215.035 C 143.854 215.728,144.484 216.558,144.887 216.879 C 145.327 217.229,145.686 217.813,145.784 218.335 C 145.885 218.871,146.133 219.265,146.430 219.359 C 146.695 219.443,146.980 219.819,147.063 220.195 C 147.378 221.613,147.508 221.906,147.968 222.230 C 148.228 222.413,148.440 222.724,148.440 222.921 C 148.440 223.118,148.784 223.631,149.204 224.061 C 149.624 224.491,149.968 225.058,149.968 225.322 C 149.968 226.067,150.243 226.607,150.623 226.607 C 150.813 226.607,151.105 226.865,151.271 227.180 C 151.437 227.495,151.842 228.005,152.171 228.314 C 152.500 228.622,152.769 229.169,152.769 229.529 C 152.769 229.970,152.965 230.272,153.373 230.458 C 153.733 230.622,154.093 231.108,154.263 231.662 C 154.420 232.173,155.065 233.138,155.696 233.808 C 156.327 234.477,156.843 235.248,156.843 235.520 C 156.843 235.793,157.128 236.203,157.477 236.432 C 157.836 236.667,158.224 237.265,158.370 237.809 C 158.522 238.372,158.818 238.820,159.085 238.890 C 159.348 238.959,159.668 239.435,159.844 240.020 C 160.030 240.642,160.590 241.447,161.295 242.109 C 161.927 242.701,162.444 243.404,162.444 243.672 C 162.444 243.939,162.788 244.510,163.208 244.940 C 163.635 245.376,163.972 245.995,163.972 246.342 C 163.972 246.773,164.203 247.083,164.724 247.352 C 165.256 247.628,165.524 247.995,165.639 248.607 C 165.728 249.082,166.049 249.709,166.351 249.998 C 167.578 251.174,168.002 251.711,168.089 252.196 C 168.179 252.701,168.409 252.706,197.457 252.778 C 226.605 252.849,228.727 252.813,228.168 252.255 C 228.010 252.096,227.880 251.768,227.880 251.526 C 227.880 251.283,227.547 250.847,227.139 250.557 C 226.616 250.185,226.346 249.728,226.225 249.012 C 226.131 248.452,225.911 247.995,225.736 247.995 C 225.356 247.995,224.271 246.497,223.569 245.003 C 223.289 244.408,222.936 243.921,222.784 243.921 C 222.632 243.921,222.339 243.519,222.134 243.028 C 221.771 242.158,221.596 241.905,220.217 240.256 C 219.852 239.821,219.480 239.158,219.388 238.782 C 219.297 238.406,218.993 238.026,218.713 237.937 C 218.374 237.830,218.108 237.397,217.919 236.647 C 217.751 235.977,217.489 235.519,217.275 235.519 C 217.076 235.519,216.698 235.016,216.435 234.402 C 216.168 233.778,215.498 232.918,214.917 232.450 C 214.244 231.909,213.877 231.408,213.877 231.029 C 213.877 230.707,213.533 230.092,213.113 229.663 C 212.693 229.233,212.349 228.660,212.349 228.389 C 212.349 228.119,211.976 227.521,211.521 227.061 C 210.638 226.169,209.660 224.383,209.426 223.234 C 209.348 222.849,209.117 222.533,208.913 222.533 C 208.709 222.533,208.352 222.161,208.118 221.706 C 207.885 221.251,207.481 220.605,207.221 220.271 C 206.960 219.937,206.747 219.448,206.747 219.184 C 206.747 218.919,206.464 218.574,206.118 218.417 C 205.772 218.259,205.370 217.771,205.225 217.332 C 205.081 216.893,204.734 216.338,204.454 216.099 C 204.175 215.859,203.947 215.452,203.947 215.194 C 203.947 214.935,203.371 214.132,202.667 213.410 C 201.933 212.657,201.322 211.767,201.233 211.323 C 201.148 210.897,200.855 210.429,200.581 210.282 C 200.308 210.136,199.909 209.597,199.695 209.084 C 199.481 208.571,199.032 207.827,198.698 207.430 C 198.364 207.033,198.090 206.602,198.090 206.473 C 198.090 206.344,197.890 206.026,197.645 205.767 C 196.441 204.493,195.779 203.573,195.626 202.963 C 195.534 202.594,195.134 201.988,194.738 201.616 C 194.241 201.152,194.017 200.691,194.017 200.139 C 194.017 199.479,193.883 199.290,193.261 199.073 C 192.711 198.882,192.334 198.451,191.878 197.495 C 191.533 196.772,191.021 195.987,190.739 195.750 C 190.457 195.513,190.148 194.903,190.053 194.395 C 189.932 193.754,189.698 193.402,189.287 193.245 C 188.892 193.095,188.606 192.687,188.426 192.019 C 188.269 191.437,187.890 190.842,187.522 190.601 C 187.173 190.373,186.887 190.013,186.887 189.802 C 186.887 189.590,186.720 189.353,186.515 189.275 C 186.310 189.196,186.068 188.885,185.977 188.582 C 185.885 188.280,185.480 187.724,185.076 187.347 C 184.588 186.892,184.341 186.410,184.341 185.913 C 184.341 185.395,184.145 185.035,183.705 184.747 C 183.355 184.517,183.068 184.181,183.068 183.999 C 183.068 183.818,182.778 183.417,182.424 183.109 C 182.070 182.801,181.713 182.212,181.631 181.800 C 181.548 181.388,181.216 180.877,180.893 180.666 C 180.570 180.454,180.225 180.020,180.125 179.701 C 180.025 179.382,179.616 178.745,179.215 178.285 C 178.813 177.825,178.485 177.306,178.485 177.132 C 178.485 176.958,178.256 176.620,177.976 176.380 C 177.696 176.140,177.465 175.628,177.463 175.241 C 177.458 174.398,177.301 174.155,176.384 173.572 C 175.957 173.300,175.684 172.901,175.684 172.549 C 175.684 172.221,175.189 171.425,174.540 170.709 C 173.910 170.014,173.394 169.254,173.394 169.018 C 173.393 168.782,173.056 168.350,172.644 168.056 C 172.086 167.660,171.875 167.282,171.816 166.581 C 171.759 165.897,171.577 165.559,171.151 165.348 C 170.556 165.053,168.810 162.583,168.810 162.037 C 168.810 161.873,168.523 161.551,168.173 161.322 C 167.823 161.093,167.537 160.683,167.537 160.411 C 167.537 160.140,167.312 159.709,167.038 159.454 C 166.764 159.198,166.392 158.647,166.211 158.228 C 165.886 157.477,165.495 156.968,164.206 155.620 C 163.844 155.242,163.464 154.595,163.361 154.182 C 163.257 153.769,162.894 153.173,162.554 152.858 C 162.214 152.542,161.935 152.108,161.935 151.893 C 161.935 151.677,161.362 150.869,160.662 150.095 C 159.962 149.322,159.389 148.470,159.389 148.201 C 159.389 147.931,159.058 147.476,158.654 147.188 C 158.190 146.858,157.859 146.344,157.756 145.795 C 157.658 145.273,157.341 144.760,156.963 144.513 C 156.617 144.286,156.334 143.875,156.334 143.600 C 156.334 143.324,155.761 142.466,155.060 141.693 C 154.360 140.920,153.787 140.067,153.787 139.798 C 153.787 139.529,153.444 139.064,153.024 138.765 C 152.524 138.409,152.260 138.001,152.260 137.585 C 152.260 136.738,151.824 135.964,151.347 135.964 C 151.134 135.964,150.781 135.535,150.562 135.010 C 150.343 134.484,149.735 133.539,149.213 132.909 C 148.690 132.279,148.185 131.444,148.090 131.054 C 147.990 130.643,147.666 130.249,147.319 130.118 C 146.904 129.960,146.669 129.611,146.549 128.971 C 146.439 128.382,145.973 127.631,145.253 126.879 C 144.583 126.180,143.962 125.206,143.718 124.470 C 143.492 123.790,143.202 123.234,143.073 123.234 C 142.944 123.234,142.839 123.083,142.839 122.899 C 142.839 122.714,142.438 122.208,141.948 121.774 C 141.458 121.341,141.057 120.751,141.057 120.463 C 141.057 120.176,140.713 119.590,140.293 119.160 C 139.789 118.644,139.529 118.120,139.529 117.617 C 139.529 117.031,139.376 116.798,138.867 116.604 C 138.070 116.301,137.258 115.381,137.246 114.768 C 137.241 114.524,136.836 113.880,136.346 113.337 C 135.856 112.795,135.455 112.115,135.455 111.826 C 135.455 111.534,135.117 111.061,134.691 110.757 C 134.099 110.335,133.927 110.019,133.927 109.346 C 133.927 108.640,133.785 108.406,133.164 108.084 C 132.743 107.867,132.400 107.538,132.400 107.353 C 132.400 107.168,132.171 106.810,131.891 106.556 C 131.610 106.303,131.381 105.961,131.381 105.797 C 131.381 105.633,131.094 105.229,130.742 104.899 C 130.390 104.568,129.983 103.855,129.837 103.313 C 129.692 102.772,129.404 102.264,129.198 102.185 C 128.709 101.998,127.053 99.499,127.053 98.950 C 127.053 98.716,126.781 98.401,126.449 98.250 C 126.074 98.079,125.732 97.600,125.549 96.986 C 125.386 96.443,125.027 95.878,124.752 95.730 C 124.477 95.583,124.252 95.238,124.252 94.962 C 124.252 94.687,124.052 94.256,123.806 94.004 C 122.229 92.383,121.451 91.328,121.451 90.810 C 121.451 90.426,121.230 90.115,120.828 89.931 C 120.413 89.742,120.111 89.303,119.928 88.622 C 119.776 88.058,119.434 87.480,119.168 87.338 C 118.903 87.195,118.609 86.838,118.515 86.544 C 118.422 86.250,118.180 85.820,117.978 85.589 C 116.596 84.012,115.850 82.871,115.850 82.338 C 115.850 81.921,115.653 81.644,115.248 81.490 C 114.568 81.231,114.322 80.751,114.322 79.678 C 114.322 79.109,114.181 78.905,113.704 78.785 C 112.957 78.598,111.892 77.097,111.640 75.875 C 111.538 75.385,111.184 74.660,110.852 74.264 C 110.520 73.869,110.248 73.436,110.248 73.303 C 110.248 73.170,109.964 72.954,109.616 72.821 C 109.131 72.637,108.944 72.334,108.814 71.521 C 108.700 70.804,108.496 70.422,108.184 70.340 C 107.931 70.274,107.596 69.832,107.439 69.358 C 107.283 68.883,107.020 68.409,106.856 68.302 C 106.285 67.935,104.901 65.973,104.901 65.533 C 104.901 65.289,104.500 64.723,104.010 64.274 C 103.520 63.825,103.119 63.218,103.119 62.925 C 103.119 62.632,102.844 62.212,102.509 61.992 C 102.163 61.766,101.831 61.237,101.744 60.773 C 101.643 60.235,101.205 59.618,100.473 58.981 C 99.855 58.444,99.293 57.702,99.218 57.323 C 99.142 56.946,98.729 56.269,98.299 55.819 C 97.852 55.351,97.518 54.728,97.518 54.363 C 97.518 54.011,97.403 53.724,97.263 53.724 C 96.811 53.724,95.990 52.721,95.990 52.171 C 95.990 51.876,95.474 51.113,94.844 50.474 C 94.214 49.834,93.698 49.115,93.698 48.874 C 93.698 48.634,93.364 48.109,92.955 47.707 C 92.544 47.302,92.175 46.636,92.128 46.213 C 92.074 45.722,91.844 45.361,91.484 45.203 C 91.177 45.068,90.776 44.667,90.594 44.312 C 90.411 43.957,90.191 43.609,90.105 43.539 C 90.018 43.469,89.712 42.954,89.425 42.393 C 89.137 41.833,88.663 41.176,88.372 40.932 C 88.081 40.688,87.842 40.332,87.842 40.139 C 87.842 39.947,87.498 39.357,87.078 38.829 C 86.658 38.300,86.314 37.729,86.314 37.560 C 86.314 37.391,86.085 37.045,85.805 36.792 C 85.525 36.538,85.296 36.185,85.296 36.006 C 85.296 35.827,84.957 35.439,84.542 35.144 C 84.059 34.800,83.729 34.293,83.624 33.735 C 83.526 33.215,83.274 32.804,82.999 32.716 C 82.745 32.636,82.414 32.215,82.263 31.781 C 82.112 31.348,81.454 30.368,80.802 29.604 C 79.817 28.452,79.594 27.999,79.493 26.947 C 79.394 25.915,79.261 25.636,78.785 25.454 C 78.462 25.332,78.061 24.975,77.893 24.662 C 77.726 24.349,77.491 23.971,77.372 23.823 C 76.218 22.383,75.393 21.079,75.323 20.586 C 75.277 20.256,74.977 19.873,74.657 19.733 C 74.293 19.573,73.964 19.096,73.777 18.460 C 73.613 17.899,73.273 17.291,73.022 17.108 C 72.771 16.925,72.565 16.613,72.565 16.414 C 72.565 16.215,72.290 15.872,71.954 15.652 C 71.619 15.432,71.195 14.885,71.012 14.437 C 70.830 13.989,70.490 13.483,70.257 13.313 C 70.023 13.143,69.767 12.684,69.688 12.294 C 69.609 11.904,68.963 10.994,68.254 10.271 C 67.426 9.428,66.964 8.739,66.964 8.346 C 66.964 7.967,66.685 7.528,66.231 7.193 C 65.829 6.895,65.421 6.341,65.326 5.961 C 65.230 5.581,64.873 5.050,64.530 4.781 C 64.188 4.512,63.908 4.097,63.908 3.860 C 63.908 3.623,63.393 2.839,62.763 2.119 C 62.132 1.398,61.617 0.627,61.617 0.404 C 61.617 0.037,58.832 0.000,31.318 0.000 C 10.334 0.000,1.018 0.082,1.018 0.267 " stroke="none" fill="#6bcadb" fill-rule="evenodd"></path><path id="path1" d="M191.725 82.644 C 191.365 82.844,190.358 82.999,189.404 83.001 C 188.150 83.003,187.565 83.126,187.113 83.480 C 186.779 83.742,185.933 84.082,185.232 84.236 C 184.532 84.390,183.396 84.806,182.707 85.161 C 182.018 85.515,181.319 85.805,181.155 85.805 C 180.990 85.805,180.654 86.028,180.408 86.300 C 180.161 86.572,179.599 86.874,179.159 86.970 C 178.196 87.180,174.920 90.393,174.920 91.127 C 174.920 91.395,174.400 92.150,173.765 92.804 C 172.577 94.026,171.722 95.903,171.982 96.721 C 172.071 97.002,171.876 97.460,171.472 97.920 L 170.818 98.663 170.896 103.374 C 170.967 107.657,171.023 108.165,171.517 108.975 C 171.816 109.465,172.137 110.502,172.229 111.279 C 172.362 112.388,172.559 112.844,173.150 113.401 C 173.564 113.791,173.902 114.326,173.902 114.590 C 173.902 114.853,174.876 116.041,176.066 117.228 C 177.257 118.416,178.230 119.508,178.230 119.656 C 178.230 119.803,178.376 119.924,178.553 119.924 C 178.731 119.924,179.275 120.193,179.763 120.522 C 180.250 120.852,181.108 121.267,181.668 121.446 C 182.228 121.624,182.870 121.930,183.094 122.125 C 183.858 122.790,187.012 124.197,188.160 124.384 C 188.791 124.487,189.579 124.786,189.913 125.048 C 190.281 125.337,190.934 125.526,191.568 125.528 C 192.145 125.529,193.221 125.812,193.961 126.156 C 194.700 126.500,195.678 126.768,196.132 126.751 C 196.587 126.734,197.206 126.852,197.508 127.014 C 197.810 127.175,198.748 127.307,199.592 127.307 C 200.867 127.307,201.174 127.394,201.400 127.817 C 201.597 128.184,201.936 128.327,202.619 128.330 C 203.703 128.334,204.012 128.493,204.409 129.247 C 204.653 129.712,205.010 129.811,206.991 129.966 L 209.290 130.146 210.628 131.401 C 214.651 135.173,214.543 134.957,214.324 138.792 C 214.147 141.892,211.844 145.263,209.559 145.765 C 209.114 145.862,208.687 146.107,208.610 146.307 C 208.533 146.508,207.633 147.080,206.611 147.578 L 204.752 148.485 199.321 148.396 L 193.889 148.308 192.707 147.483 C 192.057 147.030,191.465 146.503,191.392 146.313 C 191.319 146.122,190.820 145.895,190.283 145.808 C 189.664 145.708,189.042 145.368,188.584 144.881 C 188.187 144.458,187.765 144.112,187.647 144.112 C 187.528 144.112,187.356 143.876,187.264 143.587 C 187.173 143.299,186.823 142.938,186.488 142.785 C 186.153 142.632,185.803 142.267,185.711 141.973 C 185.618 141.679,185.272 141.040,184.942 140.552 C 184.584 140.025,184.341 139.292,184.341 138.743 C 184.341 138.112,184.140 137.604,183.705 137.134 C 183.292 136.689,183.068 136.151,183.068 135.604 C 183.068 133.792,181.437 132.748,180.383 133.885 C 179.757 134.560,179.729 134.565,175.237 134.695 C 171.442 134.805,170.577 134.904,169.828 135.311 C 169.338 135.577,168.765 135.874,168.555 135.969 C 168.001 136.221,167.947 137.581,168.452 138.558 C 168.692 139.022,168.981 140.089,169.094 140.929 C 169.551 144.331,169.755 145.197,170.155 145.420 C 170.381 145.547,170.938 146.421,171.394 147.364 C 171.849 148.306,172.543 149.453,172.935 149.913 C 173.327 150.373,173.647 150.955,173.647 151.207 C 173.647 151.843,176.673 154.911,177.629 155.245 C 178.062 155.396,178.976 156.044,179.660 156.686 C 180.344 157.328,181.051 157.855,181.231 157.857 C 181.410 157.859,182.148 158.160,182.870 158.526 C 183.633 158.913,184.805 159.248,185.673 159.326 C 186.804 159.429,187.255 159.591,187.539 159.998 C 187.865 160.464,188.246 160.552,190.423 160.667 C 191.936 160.746,193.091 160.931,193.334 161.133 C 193.911 161.612,204.812 161.616,205.388 161.137 C 205.626 160.940,206.839 160.749,208.415 160.661 C 210.390 160.552,211.164 160.407,211.526 160.079 C 211.969 159.678,212.819 159.400,217.384 158.161 C 218.408 157.883,219.184 157.493,219.548 157.074 C 220.106 156.430,222.087 155.060,222.459 155.060 C 222.826 155.060,224.639 152.889,224.903 152.132 C 225.050 151.712,225.493 151.065,225.888 150.694 C 226.284 150.322,226.607 149.796,226.607 149.524 C 226.607 149.251,226.833 148.824,227.110 148.574 C 227.386 148.323,227.689 147.878,227.782 147.584 C 227.876 147.290,228.157 146.761,228.408 146.408 C 230.055 144.091,230.080 130.544,228.441 128.460 C 228.132 128.068,227.880 127.550,227.880 127.309 C 227.880 127.067,227.595 126.449,227.247 125.936 C 226.899 125.423,226.540 124.711,226.451 124.354 C 226.361 123.998,226.045 123.609,225.747 123.490 C 225.135 123.245,224.039 122.116,223.584 121.260 C 223.416 120.945,223.114 120.687,222.912 120.687 C 222.710 120.687,222.360 120.404,222.133 120.058 C 221.883 119.677,221.372 119.363,220.839 119.263 C 220.330 119.167,219.796 118.850,219.574 118.511 C 219.363 118.189,218.854 117.808,218.443 117.664 C 218.032 117.521,217.696 117.283,217.696 117.136 C 217.696 116.989,217.354 116.868,216.937 116.868 C 215.886 116.868,214.168 116.141,213.860 115.565 C 213.675 115.219,213.322 115.086,212.586 115.086 C 211.996 115.086,211.022 114.809,210.270 114.428 C 209.557 114.067,208.746 113.830,208.469 113.902 C 208.192 113.975,207.663 113.910,207.293 113.758 C 206.923 113.607,205.961 113.451,205.157 113.412 C 204.141 113.363,203.488 113.180,203.022 112.813 C 202.645 112.517,201.975 112.285,201.495 112.285 C 200.876 112.285,200.462 112.085,199.994 111.559 C 199.381 110.871,199.206 110.825,196.652 110.681 C 194.651 110.567,193.836 110.418,193.487 110.102 C 193.228 109.868,192.468 109.575,191.798 109.451 C 190.961 109.297,190.433 109.027,190.112 108.591 C 189.836 108.216,189.392 107.957,189.025 107.957 C 188.049 107.957,186.236 106.125,185.903 104.804 C 185.750 104.196,185.451 103.555,185.238 103.378 C 184.664 102.902,184.767 101.742,185.480 100.648 C 187.097 98.169,187.422 97.807,188.180 97.641 C 188.608 97.546,189.020 97.309,189.095 97.114 C 189.170 96.918,189.707 96.623,190.287 96.458 C 190.868 96.293,191.610 95.920,191.937 95.628 C 192.501 95.125,192.813 95.099,198.302 95.102 L 204.074 95.106 205.538 95.856 C 206.343 96.268,207.066 96.810,207.146 97.061 C 207.226 97.312,207.400 97.518,207.534 97.518 C 207.922 97.518,210.057 99.584,210.057 99.960 C 210.057 100.147,210.315 100.436,210.630 100.602 C 211.401 101.008,211.576 101.317,211.581 102.273 C 211.583 102.718,211.785 103.280,212.031 103.522 C 212.276 103.764,212.596 104.431,212.742 105.005 L 213.008 106.047 214.579 106.123 C 215.994 106.191,216.207 106.134,216.715 105.550 L 217.278 104.901 222.274 104.901 C 225.820 104.901,227.358 104.813,227.575 104.596 C 228.154 104.016,227.956 101.496,227.281 100.862 C 226.775 100.388,226.654 99.954,226.513 98.116 C 226.360 96.124,226.279 95.870,225.585 95.223 C 225.167 94.832,224.825 94.376,224.825 94.209 C 224.825 94.042,224.596 93.615,224.316 93.259 C 224.036 92.902,223.806 92.431,223.806 92.212 C 223.806 90.958,216.999 85.552,215.419 85.550 C 215.201 85.550,214.689 85.264,214.282 84.914 C 213.820 84.516,213.231 84.278,212.711 84.278 C 212.195 84.278,211.591 84.036,211.122 83.641 C 210.456 83.081,210.126 83.004,208.366 83.003 C 207.089 83.002,206.101 82.864,205.636 82.621 C 204.613 82.087,192.693 82.107,191.725 82.644 M243.839 83.172 C 243.418 83.592,243.647 159.072,244.069 159.234 C 244.604 159.439,256.363 159.434,257.392 159.228 L 258.196 159.067 258.179 133.830 C 258.170 119.950,258.167 108.468,258.171 108.316 C 258.176 108.163,258.481 107.901,258.849 107.733 C 259.944 107.235,260.471 107.922,260.471 109.849 C 260.471 110.924,260.609 111.603,260.917 112.038 C 261.356 112.659,261.967 115.867,261.988 117.665 C 261.995 118.303,262.160 118.696,262.519 118.938 C 262.923 119.210,263.082 119.694,263.233 121.122 C 263.343 122.167,263.598 123.153,263.824 123.413 C 264.043 123.664,264.297 124.558,264.388 125.398 C 264.798 129.160,264.984 130.118,265.396 130.573 C 265.638 130.841,265.899 131.670,265.979 132.428 C 266.059 133.183,266.345 134.115,266.614 134.499 C 267.088 135.174,267.485 137.201,267.774 140.420 C 267.858 141.352,268.086 142.146,268.360 142.457 C 268.641 142.776,268.859 143.559,268.944 144.549 C 269.034 145.616,269.252 146.354,269.612 146.812 C 269.906 147.185,270.146 147.813,270.146 148.208 C 270.146 149.069,270.711 151.263,271.270 152.570 C 271.492 153.090,271.674 154.133,271.674 154.886 C 271.674 155.918,271.796 156.365,272.169 156.702 C 272.441 156.949,272.741 157.511,272.835 157.951 C 273.150 159.427,272.952 159.389,280.426 159.385 C 287.947 159.381,287.812 159.403,288.061 158.128 C 288.155 157.645,288.445 157.015,288.706 156.728 C 289.032 156.369,289.220 155.668,289.309 154.485 C 289.381 153.538,289.590 152.582,289.775 152.359 C 289.960 152.137,290.084 151.607,290.052 151.181 C 290.020 150.756,290.168 150.142,290.382 149.815 C 290.622 149.448,290.770 148.633,290.770 147.673 C 290.770 146.348,290.862 146.039,291.407 145.535 C 291.953 145.029,292.043 144.722,292.043 143.381 C 292.043 142.026,292.129 141.743,292.687 141.257 C 293.173 140.835,293.320 140.477,293.287 139.795 C 293.245 138.943,293.762 135.115,293.993 134.564 C 294.052 134.424,294.266 134.023,294.468 133.673 C 294.671 133.323,294.838 132.497,294.840 131.837 C 294.843 130.905,294.981 130.508,295.456 130.055 C 295.951 129.584,296.095 129.130,296.210 127.689 C 296.448 124.695,296.800 122.799,297.232 122.181 C 297.459 121.858,297.645 121.120,297.645 120.541 C 297.645 119.909,297.898 119.013,298.281 118.293 C 298.631 117.635,298.919 116.730,298.921 116.282 C 298.922 115.834,299.094 114.905,299.303 114.218 C 299.511 113.531,299.682 112.581,299.682 112.108 C 299.682 111.636,299.840 110.995,300.033 110.685 C 300.227 110.375,300.455 109.395,300.541 108.508 C 300.726 106.590,300.806 106.429,301.575 106.429 C 302.812 106.429,302.775 105.571,302.747 133.131 L 302.720 159.101 303.811 159.257 C 304.411 159.343,307.651 159.379,311.012 159.337 L 317.123 159.262 317.187 121.130 L 317.252 82.999 305.730 83.066 L 294.208 83.132 294.065 84.373 C 293.975 85.153,293.751 85.740,293.459 85.953 C 293.142 86.185,293.045 86.475,293.151 86.876 C 293.236 87.197,293.145 88.148,292.948 88.988 C 292.752 89.828,292.525 91.080,292.443 91.770 C 292.362 92.460,292.102 93.238,291.867 93.498 C 291.627 93.763,291.358 94.655,291.256 95.522 C 291.143 96.476,290.862 97.358,290.525 97.814 C 290.131 98.346,289.899 99.216,289.700 100.901 C 289.508 102.529,289.279 103.407,288.951 103.772 C 288.600 104.163,288.479 104.697,288.479 105.855 C 288.479 107.276,288.415 107.458,287.754 107.929 C 287.049 108.431,287.025 108.522,286.859 111.441 C 286.735 113.605,286.556 114.690,286.214 115.346 C 285.953 115.846,285.658 116.743,285.557 117.339 C 285.457 117.934,285.130 118.650,284.831 118.928 C 284.439 119.293,284.241 119.876,284.121 121.016 C 283.791 124.148,283.555 125.408,283.190 125.971 C 282.986 126.286,282.758 127.297,282.684 128.217 C 282.572 129.611,282.450 129.955,281.950 130.283 C 281.425 130.626,281.349 130.877,281.349 132.262 C 281.349 133.478,281.240 133.947,280.882 134.272 C 280.104 134.975,279.567 134.126,279.567 132.195 C 279.567 130.830,279.490 130.579,278.965 130.235 C 278.464 129.906,278.340 129.563,278.230 128.192 C 278.158 127.285,277.913 126.261,277.687 125.916 C 277.461 125.571,277.270 124.969,277.263 124.579 C 277.236 123.119,276.330 119.651,275.892 119.330 C 275.606 119.122,275.384 118.472,275.265 117.492 C 275.163 116.659,274.887 115.612,274.652 115.166 C 274.363 114.618,274.170 113.396,274.055 111.389 C 273.945 109.455,273.770 108.319,273.552 108.126 C 273.369 107.963,273.044 107.682,272.829 107.501 C 272.614 107.321,272.438 106.781,272.438 106.302 C 272.438 105.778,272.246 105.249,271.957 104.975 C 271.614 104.650,271.432 104.008,271.322 102.737 C 271.025 99.318,270.848 98.404,270.342 97.691 C 270.056 97.289,269.754 96.313,269.655 95.472 C 269.558 94.647,269.303 93.767,269.089 93.517 C 268.666 93.023,267.855 89.593,267.855 88.301 C 267.855 87.860,267.654 87.279,267.409 87.009 C 267.117 86.686,266.920 85.936,266.836 84.824 L 266.709 83.132 255.360 83.066 C 249.118 83.029,243.934 83.077,243.839 83.172 M328.453 83.167 C 327.946 83.306,328.016 95.716,328.526 96.040 C 328.696 96.148,333.434 96.238,339.055 96.241 C 348.735 96.244,349.307 96.270,349.876 96.731 L 350.477 97.218 350.477 128.044 L 350.477 158.871 351.114 159.134 C 351.515 159.300,354.388 159.372,358.880 159.330 L 366.009 159.262 366.136 128.148 C 366.239 103.101,366.328 96.969,366.594 96.703 C 366.851 96.446,369.330 96.343,377.670 96.244 L 388.415 96.117 388.415 89.624 L 388.415 83.132 358.625 83.097 C 342.241 83.078,328.663 83.109,328.453 83.167 " stroke="none" fill="#080808" fill-rule="evenodd"></path></g></svg>