<?xml version="1.0" encoding="UTF-8" standalone="no"?>
<!DOCTYPE svg PUBLIC "-//W3C//DTD SVG 1.1//EN" "http://www.w3.org/Graphics/SVG/1.1/DTD/svg11.dtd">
<svg version="1.1" xmlns="http://www.w3.org/2000/svg" xmlns:xlink="http://www.w3.org/1999/xlink" preserveAspectRatio="xMidYMid meet" viewBox="0 0 32 32" width="32" height="32"><defs><path d="M0.08 5.02C0.08 5.03 0.12 5.08 0.16 5.12C0.19 5.16 0.23 5.22 0.24 5.25C0.25 5.27 0.28 5.33 0.32 5.36C0.35 5.4 0.38 5.45 0.38 5.47C0.38 5.51 0.39 5.53 0.43 5.55C0.47 5.57 0.49 5.6 0.51 5.66C0.52 5.72 0.55 5.76 0.58 5.78C0.61 5.79 0.63 5.81 0.63 5.82C0.63 5.83 0.65 5.86 0.67 5.88C0.69 5.9 0.71 5.94 0.71 5.96C0.71 5.98 0.73 6.03 0.76 6.06C0.78 6.09 0.81 6.14 0.82 6.17C0.82 6.2 0.86 6.24 0.89 6.25C0.93 6.27 0.94 6.3 0.95 6.36C0.96 6.42 0.98 6.45 1.01 6.46C1.03 6.47 1.05 6.5 1.06 6.53C1.07 6.56 1.12 6.63 1.18 6.69C1.23 6.75 1.28 6.82 1.28 6.85C1.28 6.87 1.31 6.92 1.34 6.95C1.38 6.98 1.41 7.04 1.42 7.07C1.43 7.12 1.45 7.15 1.48 7.16C1.5 7.17 1.53 7.2 1.54 7.23C1.55 7.26 1.59 7.33 1.65 7.39C1.7 7.44 1.74 7.51 1.74 7.54C1.74 7.56 1.77 7.61 1.8 7.64C1.85 7.68 1.87 7.71 1.87 7.76C1.87 7.82 1.88 7.84 1.93 7.86C1.96 7.88 1.99 7.9 1.99 7.91C1.99 7.92 2.04 7.99 2.1 8.07C2.15 8.14 2.21 8.23 2.21 8.26C2.22 8.28 2.26 8.33 2.29 8.36C2.32 8.39 2.35 8.44 2.35 8.47C2.35 8.5 2.37 8.53 2.39 8.54C2.41 8.56 2.44 8.59 2.44 8.63C2.45 8.66 2.5 8.74 2.55 8.79C2.6 8.85 2.65 8.92 2.66 8.95C2.66 8.98 2.69 9.02 2.72 9.04C2.75 9.06 2.78 9.11 2.79 9.16C2.8 9.2 2.82 9.24 2.83 9.24C2.87 9.24 2.92 9.31 2.92 9.38C2.92 9.43 2.93 9.45 2.95 9.46C3.03 9.48 3.05 9.51 3.1 9.61C3.13 9.66 3.17 9.72 3.19 9.74C3.21 9.75 3.23 9.8 3.24 9.84C3.25 9.88 3.28 9.93 3.32 9.95C3.36 9.98 3.38 10.01 3.38 10.05C3.38 10.08 3.4 10.12 3.44 10.16C3.47 10.19 3.5 10.22 3.5 10.23C3.5 10.25 3.52 10.27 3.55 10.28C3.57 10.3 3.59 10.32 3.59 10.34C3.59 10.36 3.62 10.4 3.65 10.43C3.68 10.47 3.71 10.52 3.71 10.55C3.71 10.57 3.74 10.62 3.77 10.65C3.87 10.74 3.92 10.82 3.94 10.91C3.96 10.96 4 11.04 4.05 11.09C4.1 11.14 4.15 11.21 4.17 11.25C4.18 11.29 4.21 11.33 4.24 11.35C4.26 11.37 4.28 11.41 4.29 11.45C4.3 11.5 4.32 11.54 4.36 11.55C4.39 11.56 4.41 11.6 4.42 11.63C4.43 11.68 4.48 11.75 4.58 11.86C4.6 11.88 4.62 11.92 4.63 11.95C4.63 11.98 4.66 12.02 4.69 12.04C4.72 12.05 4.74 12.1 4.75 12.14C4.76 12.17 4.79 12.23 4.82 12.26C4.92 12.36 4.97 12.43 4.99 12.49C4.99 12.52 5.02 12.57 5.05 12.58C5.07 12.6 5.1 12.63 5.1 12.65C5.1 12.68 5.12 12.71 5.14 12.73C5.17 12.75 5.2 12.8 5.22 12.84C5.26 12.92 5.33 13.03 5.4 13.09C5.43 13.12 5.45 13.16 5.45 13.19C5.45 13.24 5.54 13.37 5.62 13.44C5.64 13.46 5.67 13.51 5.67 13.54C5.68 13.57 5.71 13.62 5.74 13.64C5.77 13.67 5.79 13.71 5.79 13.76C5.79 13.82 5.8 13.84 5.85 13.86C5.88 13.87 5.92 13.9 5.93 13.92C5.96 13.97 5.98 14 6.08 14.15C6.12 14.21 6.15 14.27 6.15 14.29C6.15 14.3 6.17 14.32 6.2 14.34C6.23 14.35 6.25 14.38 6.26 14.42C6.27 14.45 6.29 14.49 6.32 14.52C6.34 14.54 6.36 14.57 6.36 14.59C6.36 14.61 6.38 14.65 6.42 14.67C6.45 14.69 6.48 14.74 6.49 14.78C6.5 14.81 6.52 14.85 6.55 14.86C6.57 14.87 6.59 14.9 6.59 14.93C6.59 14.96 6.63 15.03 6.7 15.09C6.9 15.3 6.87 15.64 6.64 15.75C6.61 15.77 6.59 15.8 6.59 15.85C6.58 15.9 6.55 15.95 6.52 15.97C6.49 16 6.46 16.04 6.46 16.06C6.46 16.08 6.42 16.15 6.37 16.21C6.31 16.26 6.27 16.32 6.27 16.35C6.27 16.37 6.24 16.41 6.21 16.43C6.18 16.46 6.15 16.5 6.14 16.53C6.13 16.57 6.1 16.62 6.06 16.66C6.03 16.7 6 16.75 6 16.77C6 16.79 5.96 16.85 5.9 16.89C5.84 16.94 5.81 17 5.8 17.04C5.79 17.08 5.76 17.12 5.73 17.14C5.7 17.16 5.68 17.19 5.68 17.22C5.68 17.26 5.66 17.3 5.61 17.34C5.57 17.38 5.54 17.42 5.54 17.44C5.54 17.47 5.45 17.59 5.38 17.66C5.35 17.69 5.33 17.73 5.33 17.75C5.33 17.78 5.31 17.81 5.28 17.83C5.25 17.85 5.22 17.89 5.22 17.93C5.21 17.96 5.17 18.02 5.14 18.06C5.01 18.19 4.99 18.21 4.99 18.25C4.99 18.3 4.95 18.36 4.92 18.36C4.9 18.36 4.88 18.4 4.87 18.44C4.85 18.48 4.83 18.52 4.82 18.53C4.8 18.53 4.77 18.57 4.75 18.61C4.69 18.73 4.61 18.84 4.57 18.85C4.55 18.86 4.53 18.89 4.52 18.95C4.51 19.01 4.49 19.05 4.46 19.07C4.43 19.09 4.4 19.13 4.39 19.16C4.39 19.19 4.34 19.26 4.29 19.31C4.23 19.36 4.2 19.41 4.2 19.44C4.19 19.5 4.18 19.53 4.12 19.56C4.09 19.57 4.07 19.61 4.06 19.65C4.05 19.68 4.02 19.74 3.99 19.77C3.95 19.8 3.92 19.85 3.92 19.87C3.92 19.89 3.88 19.95 3.82 20.02C3.76 20.08 3.71 20.14 3.71 20.17C3.71 20.19 3.69 20.22 3.66 20.24C3.63 20.26 3.61 20.3 3.6 20.35C3.59 20.39 3.56 20.43 3.52 20.46C3.49 20.49 3.46 20.52 3.46 20.54C3.46 20.58 3.44 20.6 3.32 20.76C3.28 20.81 3.25 20.86 3.25 20.87C3.25 20.89 3.23 20.92 3.2 20.94C3.16 20.96 3.15 20.99 3.15 21.04C3.15 21.09 3.13 21.12 3.08 21.15C3.04 21.18 3.02 21.22 3.02 21.25C3.02 21.28 2.99 21.32 2.96 21.36C2.92 21.39 2.89 21.43 2.89 21.44C2.89 21.49 2.81 21.61 2.76 21.64C2.71 21.66 2.69 21.69 2.68 21.76C2.67 21.81 2.65 21.85 2.62 21.86C2.6 21.86 2.57 21.9 2.56 21.95C2.55 21.99 2.52 22.04 2.5 22.07C2.41 22.15 2.35 22.24 2.35 22.27C2.35 22.29 2.33 22.32 2.3 22.34C2.27 22.36 2.24 22.41 2.22 22.45C2.21 22.49 2.18 22.53 2.15 22.55C2.12 22.57 2.1 22.61 2.09 22.64C2.08 22.68 2.03 22.75 1.97 22.81C1.91 22.88 1.87 22.94 1.87 22.97C1.87 23 1.85 23.03 1.83 23.04C1.81 23.04 1.78 23.09 1.76 23.14C1.74 23.19 1.71 23.24 1.69 23.24C1.67 23.25 1.66 23.27 1.66 23.29C1.66 23.3 1.63 23.34 1.6 23.37C1.58 23.4 1.55 23.44 1.54 23.47C1.53 23.5 1.5 23.54 1.47 23.57C1.42 23.6 1.41 23.63 1.41 23.67C1.41 23.71 1.38 23.75 1.34 23.78C1.31 23.81 1.26 23.88 1.23 23.93C1.19 23.99 1.15 24.04 1.12 24.05C1.08 24.06 1.07 24.08 1.07 24.14C1.07 24.22 1.05 24.24 0.99 24.28C0.97 24.29 0.94 24.33 0.94 24.36C0.93 24.4 0.88 24.48 0.83 24.54C0.78 24.6 0.73 24.66 0.73 24.68C0.73 24.7 0.71 24.73 0.68 24.74C0.65 24.76 0.62 24.8 0.61 24.86C0.59 24.91 0.56 24.96 0.54 24.98C0.51 25 0.48 25.04 0.48 25.07C0.47 25.1 0.42 25.17 0.37 25.23C0.32 25.29 0.27 25.35 0.27 25.37C0.27 25.39 0.25 25.43 0.22 25.45C0.2 25.47 0.17 25.51 0.16 25.54C0.14 25.61 0.08 25.66 0.04 25.66C0.02 25.66 0 25.68 0 25.7C0 25.73 4.99 25.74 5.08 25.71C5.12 25.7 5.14 25.67 5.15 25.62C5.15 25.58 5.19 25.52 5.22 25.49C5.26 25.46 5.29 25.42 5.29 25.4C5.29 25.37 5.33 25.31 5.39 25.25C5.45 25.2 5.5 25.12 5.51 25.09C5.52 25.06 5.54 25.02 5.56 25.01C5.58 24.99 5.61 24.95 5.61 24.91C5.62 24.87 5.65 24.83 5.69 24.81C5.72 24.8 5.75 24.77 5.75 24.75C5.75 24.73 5.78 24.67 5.81 24.62C5.85 24.57 5.87 24.52 5.87 24.51C5.87 24.5 5.89 24.49 5.91 24.48C5.94 24.48 5.96 24.45 5.97 24.41C5.98 24.38 6.01 24.33 6.03 24.3C6.06 24.26 6.09 24.22 6.1 24.19C6.1 24.16 6.13 24.13 6.15 24.12C6.17 24.1 6.19 24.05 6.2 24.01C6.21 23.95 6.23 23.91 6.26 23.89C6.29 23.87 6.32 23.83 6.33 23.79C6.34 23.74 6.36 23.7 6.43 23.65C6.49 23.61 6.53 23.56 6.54 23.53C6.56 23.43 6.57 23.42 6.6 23.41C6.63 23.4 6.65 23.36 6.67 23.31C6.68 23.25 6.7 23.21 6.73 23.2C6.75 23.2 6.78 23.17 6.79 23.13C6.79 23.09 6.82 23.05 6.84 23.04C6.86 23.03 6.88 23.01 6.88 22.99C6.88 22.98 6.9 22.94 6.93 22.92C6.96 22.89 6.99 22.84 7 22.8C7.01 22.77 7.04 22.73 7.06 22.72C7.09 22.71 7.11 22.68 7.11 22.66C7.11 22.62 7.18 22.51 7.27 22.43C7.32 22.38 7.35 22.32 7.36 22.28C7.36 22.23 7.38 22.2 7.41 22.19C7.43 22.19 7.46 22.15 7.47 22.11C7.48 22.07 7.53 21.99 7.58 21.94C7.62 21.89 7.67 21.82 7.68 21.77C7.7 21.71 7.74 21.63 7.81 21.56C7.86 21.49 7.91 21.43 7.91 21.41C7.91 21.4 7.94 21.36 7.97 21.32C8 21.28 8.04 21.23 8.04 21.2C8.05 21.17 8.08 21.14 8.11 21.12C8.14 21.1 8.16 21.07 8.16 21.04C8.16 20.99 8.28 20.83 8.35 20.78C8.37 20.77 8.39 20.73 8.39 20.7C8.39 20.68 8.42 20.62 8.45 20.58C8.49 20.53 8.52 20.49 8.52 20.47C8.52 20.46 8.54 20.44 8.56 20.43C8.58 20.42 8.6 20.4 8.6 20.39C8.6 20.37 8.62 20.33 8.65 20.3C8.68 20.26 8.72 20.21 8.72 20.17C8.73 20.14 8.76 20.1 8.8 20.09C8.83 20.07 8.85 20.04 8.85 20.02C8.85 19.96 8.89 19.89 8.94 19.86C8.96 19.84 8.98 19.82 8.98 19.81C8.98 19.76 9.09 19.62 9.14 19.6C9.18 19.59 9.19 19.57 9.19 19.51C9.19 19.43 9.21 19.36 9.28 19.3C9.3 19.27 9.33 19.24 9.34 19.21C9.37 19.18 9.38 19.18 9.41 19.2C9.43 19.21 9.48 19.24 9.52 19.27C9.56 19.29 9.59 19.33 9.6 19.37C9.6 19.4 9.63 19.45 9.66 19.48C9.69 19.5 9.71 19.54 9.71 19.56C9.71 19.58 9.76 19.65 9.82 19.71C9.87 19.77 9.93 19.85 9.93 19.88C9.94 19.91 9.97 19.95 10 19.97C10.03 19.99 10.05 20.03 10.06 20.08C10.07 20.15 10.09 20.18 10.12 20.19C10.15 20.2 10.17 20.22 10.17 20.24C10.17 20.27 10.21 20.32 10.32 20.44C10.35 20.48 10.39 20.55 10.4 20.59C10.41 20.63 10.43 20.66 10.46 20.67C10.5 20.69 10.51 20.71 10.51 20.78C10.51 20.84 10.52 20.86 10.56 20.89C10.61 20.91 10.74 21.06 10.74 21.09C10.74 21.1 10.77 21.14 10.8 21.19C10.84 21.23 10.87 21.28 10.87 21.3C10.87 21.32 10.89 21.35 10.91 21.37C10.96 21.4 11.03 21.51 11.08 21.63C11.1 21.66 11.13 21.7 11.15 21.71C11.17 21.71 11.2 21.75 11.21 21.79C11.23 21.83 11.26 21.89 11.29 21.91C11.31 21.93 11.33 21.97 11.33 21.99C11.33 22.01 11.37 22.08 11.43 22.14C11.49 22.2 11.54 22.26 11.54 22.29C11.54 22.31 11.57 22.36 11.61 22.4C11.65 22.44 11.68 22.49 11.68 22.51C11.68 22.52 11.7 22.55 11.73 22.58C11.75 22.6 11.79 22.66 11.82 22.72C11.85 22.78 11.9 22.84 11.94 22.87C11.97 22.9 12 22.95 12.01 22.99C12.02 23.03 12.04 23.07 12.06 23.07C12.09 23.08 12.11 23.11 12.12 23.14C12.14 23.26 12.15 23.28 12.19 23.31C12.21 23.33 12.23 23.35 12.23 23.37C12.23 23.38 12.26 23.43 12.29 23.46C12.33 23.5 12.36 23.54 12.36 23.57C12.36 23.63 12.38 23.67 12.41 23.67C12.42 23.67 12.45 23.69 12.46 23.72C12.48 23.74 12.51 23.79 12.54 23.81C12.56 23.84 12.59 23.88 12.59 23.91C12.59 23.95 12.6 23.97 12.64 23.99C12.67 24 12.7 24.04 12.71 24.09C12.72 24.13 12.78 24.21 12.83 24.26C12.88 24.32 12.92 24.38 12.92 24.41C12.92 24.43 12.95 24.46 12.97 24.48C13 24.5 13.04 24.55 13.05 24.59C13.06 24.64 13.08 24.68 13.11 24.68C13.13 24.69 13.15 24.73 13.17 24.78C13.18 24.83 13.23 24.89 13.29 24.95C13.34 25 13.38 25.06 13.38 25.08C13.38 25.1 13.41 25.15 13.45 25.18C13.48 25.22 13.51 25.27 13.51 25.3C13.51 25.33 13.53 25.36 13.57 25.38C13.61 25.4 13.64 25.43 13.65 25.48C13.65 25.52 13.68 25.57 13.71 25.6C13.81 25.7 13.84 25.74 13.85 25.78C13.86 25.82 13.87 25.82 16.27 25.83C18.67 25.83 18.84 25.83 18.8 25.78C18.78 25.77 18.77 25.74 18.77 25.72C18.77 25.7 18.75 25.67 18.71 25.64C18.67 25.61 18.65 25.58 18.64 25.52C18.63 25.47 18.61 25.43 18.6 25.43C18.57 25.43 18.48 25.31 18.42 25.19C18.4 25.14 18.37 25.1 18.35 25.1C18.34 25.1 18.32 25.06 18.3 25.02C18.27 24.95 18.26 24.93 18.14 24.8C18.11 24.76 18.08 24.71 18.07 24.67C18.07 24.64 18.04 24.61 18.02 24.6C17.99 24.6 17.97 24.56 17.95 24.5C17.94 24.44 17.92 24.41 17.9 24.41C17.88 24.41 17.85 24.36 17.83 24.31C17.81 24.26 17.75 24.19 17.71 24.15C17.65 24.11 17.62 24.07 17.62 24.04C17.62 24.01 17.59 23.96 17.56 23.92C17.52 23.89 17.49 23.84 17.49 23.82C17.49 23.8 17.46 23.75 17.43 23.71C17.35 23.64 17.27 23.49 17.25 23.39C17.25 23.36 17.23 23.34 17.21 23.34C17.19 23.34 17.17 23.31 17.15 23.27C17.13 23.23 17.09 23.18 17.07 23.15C17.05 23.12 17.03 23.08 17.03 23.06C17.03 23.04 17.01 23.01 16.98 23C16.95 22.98 16.92 22.94 16.91 22.91C16.9 22.87 16.87 22.83 16.84 22.81C16.82 22.79 16.8 22.75 16.8 22.73C16.8 22.71 16.75 22.64 16.7 22.58C16.64 22.52 16.59 22.45 16.58 22.41C16.57 22.38 16.55 22.34 16.53 22.33C16.5 22.31 16.47 22.27 16.45 22.23C16.43 22.19 16.4 22.12 16.37 22.09C16.34 22.06 16.32 22.02 16.32 22.01C16.32 22 16.3 21.98 16.28 21.95C16.18 21.85 16.13 21.77 16.12 21.72C16.11 21.69 16.08 21.64 16.04 21.61C16 21.57 15.98 21.54 15.98 21.49C15.98 21.44 15.97 21.42 15.92 21.4C15.88 21.39 15.85 21.35 15.81 21.27C15.78 21.21 15.74 21.15 15.71 21.13C15.69 21.11 15.67 21.06 15.66 21.02C15.65 20.96 15.63 20.94 15.59 20.92C15.56 20.91 15.54 20.88 15.52 20.82C15.51 20.77 15.48 20.72 15.45 20.7C15.42 20.69 15.4 20.66 15.4 20.64C15.4 20.62 15.38 20.6 15.37 20.6C15.35 20.59 15.33 20.56 15.32 20.54C15.31 20.51 15.28 20.47 15.25 20.44C15.21 20.4 15.19 20.36 15.19 20.32C15.19 20.28 15.17 20.25 15.13 20.22C15.11 20.2 15.08 20.18 15.08 20.16C15.08 20.15 15.06 20.11 15.03 20.09C15 20.06 14.97 20.01 14.96 19.98C14.96 19.95 14.93 19.9 14.9 19.89C14.88 19.87 14.85 19.83 14.84 19.81C14.83 19.78 14.8 19.73 14.76 19.69C14.73 19.65 14.7 19.61 14.7 19.59C14.7 19.58 14.69 19.55 14.66 19.53C14.64 19.51 14.62 19.47 14.62 19.44C14.62 19.37 14.61 19.35 14.53 19.3C14.5 19.28 14.47 19.25 14.47 19.22C14.47 19.19 14.43 19.12 14.38 19.07C14.33 19.01 14.29 18.95 14.29 18.93C14.29 18.91 14.26 18.87 14.22 18.85C14.18 18.81 14.16 18.78 14.16 18.73C14.15 18.67 14.14 18.64 14.1 18.62C14.05 18.6 13.91 18.4 13.91 18.35C13.91 18.34 13.88 18.31 13.86 18.29C13.83 18.27 13.8 18.24 13.8 18.22C13.8 18.19 13.78 18.16 13.76 18.14C13.74 18.12 13.71 18.07 13.69 18.04C13.67 17.98 13.63 17.93 13.53 17.82C13.5 17.79 13.47 17.74 13.46 17.7C13.45 17.67 13.42 17.62 13.39 17.59C13.36 17.57 13.34 17.53 13.34 17.52C13.34 17.5 13.29 17.43 13.24 17.37C13.18 17.3 13.13 17.23 13.13 17.21C13.13 17.19 13.1 17.15 13.07 17.13C13.03 17.1 13.01 17.06 13 17.01C12.99 16.97 12.96 16.93 12.93 16.91C12.9 16.89 12.88 16.85 12.88 16.83C12.88 16.81 12.83 16.74 12.77 16.67C12.72 16.61 12.67 16.54 12.67 16.52C12.67 16.5 12.64 16.46 12.61 16.43C12.57 16.4 12.54 16.37 12.54 16.34C12.54 16.27 12.51 16.2 12.47 16.2C12.45 16.2 12.42 16.17 12.4 16.12C12.39 16.08 12.34 16 12.29 15.95C12.25 15.9 12.21 15.83 12.2 15.8C12.19 15.76 12.17 15.73 12.14 15.72C12.1 15.71 12.08 15.68 12.07 15.63C12.06 15.58 12.03 15.52 11.97 15.45C11.91 15.4 11.86 15.32 11.84 15.26C11.82 15.2 11.8 15.15 11.79 15.15C11.78 15.15 11.77 15.14 11.77 15.13C11.77 15.11 11.73 15.07 11.69 15.03C11.65 15 11.62 14.95 11.62 14.93C11.62 14.9 11.59 14.85 11.56 14.82C11.52 14.78 11.5 14.73 11.5 14.69C11.5 14.64 11.48 14.62 11.44 14.61C11.38 14.58 11.31 14.51 11.31 14.46C11.31 14.44 11.27 14.38 11.23 14.34C11.19 14.29 11.16 14.24 11.16 14.21C11.16 14.19 11.13 14.15 11.1 14.13C11.05 14.09 11.03 14.07 11.03 14.01C11.03 13.95 11.02 13.93 10.97 13.91C10.94 13.89 10.91 13.86 10.91 13.85C10.91 13.83 10.89 13.8 10.87 13.78C10.84 13.76 10.82 13.73 10.82 13.72C10.82 13.7 10.8 13.67 10.77 13.64C10.74 13.62 10.71 13.56 10.7 13.51C10.68 13.47 10.66 13.43 10.64 13.42C10.6 13.4 10.47 13.2 10.47 13.15C10.47 13.13 10.44 13.11 10.42 13.1C10.39 13.08 10.36 13.04 10.34 12.99C10.33 12.95 10.3 12.9 10.28 12.89C10.26 12.88 10.24 12.85 10.24 12.82C10.24 12.8 10.22 12.77 10.2 12.75C10.07 12.61 10.01 12.53 10.01 12.48C10.01 12.45 9.99 12.43 9.95 12.41C9.92 12.39 9.9 12.36 9.88 12.3C9.87 12.26 9.84 12.21 9.82 12.2C9.8 12.18 9.77 12.16 9.76 12.13C9.76 12.11 9.74 12.07 9.72 12.05C9.61 11.92 9.54 11.83 9.54 11.78C9.54 11.75 9.53 11.73 9.49 11.71C9.44 11.69 9.42 11.65 9.42 11.57C9.42 11.52 9.41 11.5 9.37 11.49C9.31 11.48 9.22 11.35 9.2 11.25C9.19 11.21 9.16 11.15 9.13 11.12C9.11 11.09 9.08 11.05 9.08 11.04C9.08 11.03 9.06 11.01 9.03 11C8.99 10.98 8.98 10.96 8.96 10.89C8.96 10.83 8.94 10.8 8.91 10.8C8.89 10.79 8.86 10.75 8.85 10.71C8.84 10.68 8.82 10.64 8.8 10.63C8.76 10.6 8.64 10.44 8.64 10.4C8.64 10.38 8.61 10.33 8.57 10.3C8.53 10.26 8.5 10.21 8.5 10.18C8.5 10.16 8.47 10.13 8.45 10.11C8.42 10.09 8.39 10.05 8.38 10.01C8.37 9.96 8.34 9.91 8.28 9.86C8.23 9.82 8.18 9.75 8.17 9.72C8.17 9.69 8.13 9.64 8.1 9.6C8.06 9.56 8.03 9.51 8.03 9.48C8.03 9.45 8.02 9.43 8.01 9.43C7.98 9.43 7.91 9.34 7.91 9.3C7.91 9.27 7.87 9.21 7.81 9.16C7.76 9.11 7.72 9.05 7.72 9.03C7.72 9.01 7.69 8.96 7.66 8.93C7.62 8.9 7.59 8.84 7.59 8.81C7.59 8.77 7.57 8.74 7.54 8.72C7.51 8.71 7.48 8.68 7.46 8.65C7.45 8.62 7.43 8.59 7.42 8.59C7.42 8.58 7.39 8.54 7.37 8.49C7.34 8.45 7.3 8.39 7.28 8.37C7.26 8.35 7.24 8.32 7.24 8.31C7.24 8.29 7.21 8.24 7.17 8.2C7.14 8.16 7.11 8.11 7.11 8.09C7.11 8.08 7.09 8.05 7.07 8.03C7.05 8.01 7.03 7.98 7.03 7.97C7.03 7.95 7 7.92 6.97 7.9C6.93 7.87 6.9 7.83 6.89 7.78C6.88 7.74 6.86 7.7 6.84 7.7C6.82 7.69 6.79 7.65 6.78 7.62C6.76 7.58 6.71 7.5 6.66 7.44C6.58 7.34 6.56 7.31 6.55 7.22C6.54 7.14 6.53 7.11 6.49 7.1C6.46 7.09 6.43 7.06 6.42 7.03C6.4 7.01 6.38 6.98 6.37 6.96C6.28 6.84 6.21 6.74 6.21 6.7C6.2 6.67 6.18 6.64 6.15 6.63C6.12 6.61 6.09 6.57 6.08 6.52C6.06 6.47 6.04 6.42 6.02 6.41C6 6.39 5.98 6.37 5.98 6.35C5.98 6.34 5.96 6.31 5.93 6.29C5.9 6.27 5.87 6.23 5.85 6.19C5.84 6.15 5.81 6.11 5.79 6.1C5.77 6.08 5.75 6.05 5.74 6.01C5.73 5.98 5.68 5.91 5.62 5.85C5.55 5.78 5.52 5.72 5.52 5.69C5.52 5.66 5.49 5.62 5.46 5.59C5.42 5.57 5.39 5.52 5.38 5.49C5.37 5.46 5.34 5.42 5.32 5.39C5.29 5.37 5.27 5.34 5.27 5.32C5.27 5.3 5.22 5.23 5.17 5.17C5.12 5.12 5.08 5.05 5.08 5.03C5.08 5 4.85 5 2.58 5C0.85 5 0.08 5.01 0.08 5.02" id="e2b1THIr4d"></path><path d="M15.8 11.81C15.77 11.83 15.68 11.84 15.6 11.84C15.5 11.84 15.45 11.85 15.42 11.88C15.39 11.9 15.32 11.93 15.26 11.94C15.2 11.95 15.11 11.99 15.05 12.02C15 12.05 14.94 12.07 14.92 12.07C14.91 12.07 14.88 12.09 14.86 12.11C14.84 12.13 14.8 12.16 14.76 12.17C14.68 12.18 14.41 12.45 14.41 12.51C14.41 12.53 14.37 12.59 14.32 12.65C14.22 12.75 14.15 12.9 14.17 12.97C14.18 12.99 14.16 13.03 14.13 13.07C14.12 13.07 14.11 13.09 14.07 13.13C14.08 13.36 14.08 13.49 14.08 13.52C14.09 13.87 14.09 13.91 14.13 13.98C14.16 14.02 14.18 14.1 14.19 14.17C14.2 14.26 14.22 14.3 14.27 14.34C14.3 14.38 14.33 14.42 14.33 14.44C14.33 14.46 14.41 14.56 14.51 14.66C14.6 14.76 14.68 14.85 14.68 14.86C14.68 14.87 14.7 14.88 14.71 14.88C14.72 14.88 14.77 14.9 14.81 14.93C14.85 14.96 14.92 14.99 14.97 15.01C15.01 15.02 15.07 15.05 15.08 15.06C15.15 15.12 15.41 15.23 15.5 15.25C15.55 15.26 15.62 15.28 15.65 15.3C15.68 15.33 15.73 15.34 15.78 15.34C15.83 15.34 15.92 15.37 15.98 15.39C16.04 15.42 16.12 15.45 16.16 15.44C16.2 15.44 16.25 15.45 16.27 15.47C16.3 15.48 16.37 15.49 16.44 15.49C16.55 15.49 16.57 15.5 16.59 15.53C16.61 15.56 16.64 15.57 16.69 15.57C16.78 15.57 16.81 15.59 16.84 15.65C16.86 15.69 16.89 15.7 17.05 15.71C17.07 15.71 17.13 15.71 17.24 15.72C17.31 15.79 17.35 15.82 17.35 15.83C17.68 16.14 17.68 16.12 17.66 16.44C17.64 16.69 17.45 16.97 17.26 17.01C17.23 17.02 17.19 17.04 17.19 17.06C17.18 17.07 17.11 17.12 17.02 17.16C17.01 17.16 16.96 17.19 16.87 17.23L16.42 17.23L15.97 17.22C15.92 17.18 15.88 17.16 15.88 17.15C15.82 17.11 15.77 17.07 15.77 17.06C15.76 17.04 15.72 17.02 15.68 17.01C15.63 17.01 15.57 16.98 15.54 16.94C15.5 16.9 15.47 16.87 15.46 16.87C15.45 16.87 15.44 16.85 15.43 16.83C15.42 16.81 15.39 16.78 15.36 16.76C15.34 16.75 15.31 16.72 15.3 16.7C15.29 16.67 15.26 16.62 15.24 16.58C15.21 16.54 15.19 16.48 15.19 16.43C15.19 16.38 15.17 16.34 15.13 16.3C15.1 16.26 15.08 16.22 15.08 16.17C15.08 16.02 14.95 15.94 14.86 16.03C14.81 16.09 14.81 16.09 14.44 16.1C14.12 16.11 14.05 16.12 13.99 16.15C13.95 16.17 13.9 16.2 13.89 16.2C13.84 16.22 13.84 16.34 13.88 16.42C13.9 16.45 13.92 16.54 13.93 16.61C13.97 16.89 13.99 16.96 14.02 16.98C14.04 16.99 14.08 17.06 14.12 17.14C14.16 17.22 14.22 17.31 14.25 17.35C14.28 17.39 14.31 17.44 14.31 17.46C14.31 17.51 14.56 17.76 14.63 17.79C14.67 17.8 14.75 17.86 14.8 17.91C14.86 17.96 14.92 18.01 14.93 18.01C14.95 18.01 15.01 18.03 15.07 18.06C15.13 18.09 15.23 18.12 15.3 18.13C15.39 18.14 15.43 18.15 15.45 18.18C15.48 18.22 15.51 18.23 15.69 18.24C15.81 18.24 15.91 18.26 15.93 18.28C15.98 18.32 16.87 18.32 16.92 18.28C16.94 18.26 17.04 18.24 17.17 18.24C17.33 18.23 17.4 18.22 17.43 18.19C17.46 18.16 17.53 18.13 17.91 18.03C17.99 18.01 18.06 17.98 18.09 17.94C18.13 17.89 18.3 17.78 18.33 17.78C18.36 17.78 18.51 17.6 18.53 17.53C18.54 17.5 18.58 17.45 18.61 17.42C18.64 17.39 18.67 17.34 18.67 17.32C18.67 17.3 18.69 17.26 18.71 17.24C18.73 17.22 18.76 17.18 18.77 17.16C18.77 17.14 18.8 17.09 18.82 17.06C18.95 16.87 18.96 15.76 18.82 15.58C18.79 15.55 18.77 15.51 18.77 15.49C18.77 15.47 18.75 15.42 18.72 15.38C18.69 15.33 18.66 15.28 18.66 15.25C18.65 15.22 18.62 15.18 18.6 15.18C18.55 15.15 18.46 15.06 18.42 14.99C18.41 14.97 18.38 14.94 18.36 14.94C18.35 14.94 18.32 14.92 18.3 14.89C18.28 14.86 18.24 14.83 18.19 14.83C18.15 14.82 18.11 14.79 18.09 14.76C18.07 14.74 18.03 14.71 18 14.69C17.96 14.68 17.94 14.66 17.94 14.65C17.94 14.64 17.91 14.63 17.87 14.63C17.79 14.63 17.64 14.57 17.62 14.52C17.6 14.49 17.57 14.48 17.51 14.48C17.47 14.48 17.39 14.46 17.32 14.43C17.26 14.4 17.2 14.38 17.17 14.39C17.15 14.39 17.11 14.39 17.08 14.37C17.05 14.36 16.97 14.35 16.9 14.34C16.82 14.34 16.76 14.33 16.73 14.3C16.7 14.27 16.64 14.25 16.6 14.25C16.55 14.25 16.52 14.24 16.48 14.19C16.43 14.14 16.41 14.13 16.2 14.12C16.04 14.11 15.97 14.1 15.94 14.07C15.92 14.05 15.86 14.03 15.8 14.02C15.73 14.01 15.69 13.98 15.66 13.95C15.64 13.92 15.6 13.9 15.57 13.9C15.49 13.9 15.34 13.74 15.32 13.64C15.3 13.59 15.28 13.53 15.26 13.52C15.21 13.48 15.22 13.38 15.28 13.29C15.41 13.09 15.44 13.06 15.5 13.05C15.54 13.04 15.57 13.02 15.58 13C15.58 12.99 15.63 12.96 15.68 12.95C15.72 12.93 15.79 12.9 15.81 12.88C15.86 12.84 15.89 12.84 16.34 12.84C16.37 12.84 16.53 12.84 16.81 12.84C16.89 12.87 16.93 12.89 16.93 12.9C17 12.93 17.06 12.98 17.07 13C17.07 13.02 17.09 13.04 17.1 13.04C17.13 13.04 17.31 13.21 17.31 13.24C17.31 13.25 17.33 13.28 17.35 13.29C17.42 13.32 17.43 13.35 17.43 13.43C17.43 13.46 17.45 13.51 17.47 13.53C17.49 13.55 17.51 13.6 17.53 13.65C17.53 13.66 17.54 13.69 17.55 13.74C17.63 13.74 17.67 13.74 17.68 13.74C17.79 13.75 17.81 13.74 17.85 13.7C17.86 13.69 17.87 13.68 17.9 13.64C18.15 13.64 18.28 13.64 18.31 13.64C18.6 13.64 18.73 13.64 18.75 13.62C18.8 13.57 18.78 13.36 18.72 13.31C18.68 13.27 18.67 13.24 18.66 13.08C18.65 12.92 18.64 12.9 18.59 12.85C18.55 12.81 18.52 12.78 18.52 12.76C18.52 12.75 18.5 12.71 18.48 12.68C18.46 12.65 18.44 12.62 18.44 12.6C18.44 12.49 17.88 12.05 17.75 12.05C17.73 12.05 17.69 12.03 17.65 12C17.62 11.96 17.57 11.94 17.52 11.94C17.48 11.94 17.43 11.92 17.39 11.89C17.34 11.85 17.31 11.84 17.17 11.84C17.06 11.84 16.98 11.83 16.94 11.81C16.86 11.76 15.88 11.77 15.8 11.81M20.09 11.85C20.05 11.89 20.07 18.11 20.11 18.12C20.15 18.14 21.12 18.14 21.21 18.12C21.21 18.12 21.23 18.11 21.27 18.11C21.27 16.86 21.27 16.17 21.27 16.03C21.27 14.88 21.27 13.94 21.27 13.92C21.27 13.91 21.3 13.89 21.33 13.88C21.42 13.84 21.46 13.89 21.46 14.05C21.46 14.14 21.47 14.2 21.5 14.23C21.53 14.28 21.58 14.55 21.58 14.7C21.58 14.75 21.6 14.78 21.63 14.8C21.66 14.82 21.67 14.86 21.69 14.98C21.7 15.07 21.72 15.15 21.74 15.17C21.75 15.19 21.77 15.26 21.78 15.33C21.82 15.64 21.83 15.72 21.86 15.76C21.88 15.78 21.91 15.85 21.91 15.91C21.92 15.97 21.94 16.05 21.97 16.08C22 16.14 22.04 16.3 22.06 16.57C22.07 16.65 22.09 16.71 22.11 16.74C22.13 16.76 22.15 16.83 22.16 16.91C22.16 17 22.18 17.06 22.21 17.1C22.24 17.13 22.26 17.18 22.26 17.21C22.26 17.28 22.3 17.46 22.35 17.57C22.37 17.61 22.38 17.7 22.38 17.76C22.38 17.85 22.39 17.88 22.42 17.91C22.45 17.93 22.47 17.98 22.48 18.01C22.5 18.14 22.49 18.13 23.1 18.13C23.72 18.13 23.71 18.13 23.73 18.03C23.74 17.99 23.76 17.94 23.79 17.91C23.81 17.88 23.83 17.83 23.84 17.73C23.84 17.65 23.86 17.57 23.87 17.55C23.89 17.54 23.9 17.49 23.9 17.46C23.89 17.42 23.91 17.37 23.92 17.34C23.94 17.31 23.96 17.25 23.96 17.17C23.96 17.06 23.96 17.03 24.01 16.99C24.05 16.95 24.06 16.92 24.06 16.81C24.06 16.7 24.07 16.68 24.11 16.64C24.15 16.6 24.17 16.57 24.16 16.52C24.16 16.45 24.2 16.13 24.22 16.09C24.23 16.08 24.24 16.04 24.26 16.01C24.28 15.99 24.29 15.92 24.29 15.86C24.29 15.79 24.3 15.75 24.34 15.72C24.38 15.68 24.39 15.64 24.4 15.52C24.42 15.27 24.45 15.12 24.49 15.07C24.51 15.04 24.52 14.98 24.52 14.93C24.52 14.88 24.54 14.81 24.57 14.75C24.6 14.69 24.63 14.62 24.63 14.58C24.63 14.54 24.64 14.47 24.66 14.41C24.68 14.35 24.69 14.28 24.69 14.24C24.69 14.2 24.7 14.15 24.72 14.12C24.73 14.09 24.75 14.01 24.76 13.94C24.78 13.78 24.78 13.77 24.85 13.77C24.95 13.77 24.94 13.7 24.94 15.97C24.94 16.11 24.94 16.83 24.94 18.11C24.99 18.12 25.02 18.12 25.03 18.12C25.08 18.13 25.35 18.13 25.62 18.13C25.66 18.13 25.82 18.13 26.13 18.12L26.13 14.98L26.14 11.84L25.19 11.84L24.24 11.85C24.23 11.91 24.23 11.95 24.23 11.95C24.22 12.02 24.2 12.06 24.18 12.08C24.15 12.1 24.14 12.13 24.15 12.16C24.16 12.18 24.15 12.26 24.13 12.33C24.12 12.4 24.1 12.5 24.09 12.56C24.09 12.62 24.07 12.68 24.05 12.7C24.03 12.73 24 12.8 24 12.87C23.99 12.95 23.96 13.02 23.94 13.06C23.9 13.1 23.88 13.17 23.87 13.31C23.85 13.45 23.83 13.52 23.81 13.55C23.78 13.58 23.77 13.63 23.77 13.72C23.77 13.84 23.76 13.85 23.71 13.89C23.65 13.93 23.65 13.94 23.63 14.18C23.62 14.36 23.61 14.45 23.58 14.5C23.56 14.55 23.53 14.62 23.53 14.67C23.52 14.72 23.49 14.78 23.47 14.8C23.43 14.83 23.42 14.88 23.41 14.97C23.38 15.23 23.36 15.33 23.33 15.38C23.31 15.41 23.3 15.49 23.29 15.56C23.28 15.68 23.27 15.71 23.23 15.73C23.19 15.76 23.18 15.78 23.18 15.9C23.18 16 23.17 16.04 23.14 16.06C23.08 16.12 23.03 16.05 23.03 15.89C23.03 15.78 23.03 15.76 22.98 15.73C22.94 15.7 22.93 15.68 22.92 15.56C22.92 15.49 22.9 15.4 22.88 15.37C22.86 15.35 22.84 15.3 22.84 15.26C22.84 15.14 22.77 14.86 22.73 14.83C22.71 14.82 22.69 14.76 22.68 14.68C22.67 14.61 22.65 14.53 22.63 14.49C22.6 14.44 22.59 14.34 22.58 14.18C22.57 14.02 22.55 13.93 22.54 13.91C22.52 13.9 22.5 13.87 22.48 13.86C22.46 13.84 22.45 13.8 22.45 13.76C22.45 13.72 22.43 13.67 22.41 13.65C22.38 13.62 22.36 13.57 22.35 13.47C22.33 13.18 22.31 13.11 22.27 13.05C22.25 13.02 22.22 12.94 22.22 12.87C22.21 12.8 22.19 12.73 22.17 12.71C22.13 12.66 22.07 12.38 22.07 12.28C22.07 12.24 22.05 12.19 22.03 12.17C22.01 12.14 21.99 12.08 21.98 11.99C21.98 11.98 21.98 11.93 21.97 11.85C21.41 11.85 21.1 11.84 21.04 11.84C20.52 11.84 20.1 11.85 20.09 11.85M27.06 11.85C27.02 11.86 27.02 12.89 27.07 12.91C27.08 12.92 27.47 12.93 27.93 12.93C28.73 12.93 28.78 12.93 28.82 12.97C28.83 12.97 28.84 12.99 28.87 13.01L28.87 15.55L28.87 18.09C28.91 18.1 28.92 18.11 28.93 18.11C28.96 18.13 29.2 18.13 29.57 18.13C29.61 18.13 29.8 18.13 30.15 18.12C30.16 16.58 30.16 15.73 30.16 15.56C30.17 13.5 30.18 12.99 30.2 12.97C30.22 12.95 30.43 12.94 31.11 12.93C31.17 12.93 31.47 12.93 32 12.92L32 12.38L32 11.85C30.53 11.85 29.71 11.85 29.55 11.85C28.2 11.85 27.08 11.85 27.06 11.85" id="cDnfltaMo"></path></defs><g><g><g><use xlink:href="#e2b1THIr4d" opacity="1" fill="#6bcadb" fill-opacity="1"></use><g><use xlink:href="#e2b1THIr4d" opacity="1" fill-opacity="0" stroke="#000000" stroke-width="1" stroke-opacity="0"></use></g></g><g><use xlink:href="#cDnfltaMo" opacity="1" fill="#080808" fill-opacity="1"></use><g><use xlink:href="#cDnfltaMo" opacity="1" fill-opacity="0" stroke="#000000" stroke-width="1" stroke-opacity="0"></use></g></g></g></g></svg>