<?xml version="1.0" encoding="UTF-8" standalone="no"?>
<!DOCTYPE svg PUBLIC "-//W3C//DTD SVG 1.1//EN" "http://www.w3.org/Graphics/SVG/1.1/DTD/svg11.dtd">
<svg version="1.1" xmlns="http://www.w3.org/2000/svg" xmlns:xlink="http://www.w3.org/1999/xlink" preserveAspectRatio="xMidYMid meet" viewBox="0 0 16 16" width="16" height="16"><defs><path d="M0.04 2.71C0.04 2.72 0.06 2.74 0.08 2.76C0.1 2.78 0.12 2.81 0.12 2.82C0.12 2.84 0.14 2.86 0.16 2.88C0.18 2.9 0.19 2.92 0.19 2.94C0.19 2.95 0.2 2.97 0.22 2.97C0.23 2.98 0.25 3 0.25 3.03C0.26 3.06 0.27 3.08 0.29 3.09C0.3 3.1 0.31 3.11 0.31 3.11C0.31 3.12 0.32 3.13 0.34 3.14C0.35 3.15 0.36 3.17 0.36 3.18C0.36 3.19 0.37 3.21 0.38 3.23C0.39 3.24 0.4 3.27 0.41 3.29C0.41 3.3 0.43 3.32 0.44 3.33C0.46 3.34 0.47 3.35 0.48 3.38C0.48 3.41 0.49 3.43 0.5 3.43C0.52 3.43 0.53 3.45 0.53 3.46C0.53 3.48 0.56 3.52 0.59 3.55C0.62 3.58 0.64 3.61 0.64 3.62C0.64 3.64 0.65 3.66 0.67 3.67C0.69 3.69 0.71 3.72 0.71 3.74C0.71 3.76 0.72 3.78 0.74 3.78C0.75 3.79 0.77 3.8 0.77 3.82C0.77 3.83 0.8 3.87 0.82 3.89C0.85 3.92 0.87 3.96 0.87 3.97C0.87 3.98 0.88 4.01 0.9 4.02C0.92 4.04 0.93 4.06 0.93 4.08C0.93 4.11 0.94 4.12 0.96 4.13C0.98 4.14 1 4.15 1 4.16C1 4.16 1.02 4.2 1.05 4.24C1.08 4.27 1.1 4.32 1.11 4.33C1.11 4.34 1.13 4.37 1.14 4.38C1.16 4.4 1.17 4.42 1.17 4.44C1.17 4.45 1.18 4.47 1.19 4.47C1.21 4.48 1.22 4.5 1.22 4.52C1.23 4.53 1.25 4.57 1.28 4.6C1.3 4.62 1.33 4.66 1.33 4.68C1.33 4.69 1.35 4.71 1.36 4.72C1.37 4.73 1.39 4.76 1.4 4.78C1.4 4.8 1.41 4.82 1.42 4.82C1.44 4.82 1.46 4.86 1.46 4.89C1.46 4.91 1.46 4.93 1.48 4.93C1.51 4.94 1.53 4.95 1.55 5C1.57 5.03 1.59 5.06 1.6 5.07C1.61 5.08 1.62 5.1 1.62 5.12C1.63 5.14 1.64 5.16 1.66 5.18C1.68 5.19 1.69 5.21 1.69 5.23C1.69 5.24 1.7 5.26 1.72 5.28C1.74 5.29 1.75 5.31 1.75 5.32C1.75 5.32 1.76 5.33 1.77 5.34C1.78 5.35 1.79 5.36 1.79 5.37C1.79 5.38 1.81 5.4 1.82 5.42C1.84 5.44 1.86 5.46 1.86 5.47C1.86 5.49 1.87 5.51 1.89 5.53C1.93 5.57 1.96 5.61 1.97 5.66C1.98 5.68 2 5.72 2.03 5.75C2.05 5.77 2.07 5.81 2.08 5.83C2.09 5.85 2.11 5.87 2.12 5.88C2.13 5.88 2.14 5.91 2.15 5.93C2.15 5.95 2.16 5.97 2.18 5.98C2.19 5.98 2.21 6 2.21 6.02C2.21 6.04 2.24 6.07 2.29 6.13C2.3 6.14 2.31 6.16 2.31 6.18C2.32 6.19 2.33 6.21 2.34 6.22C2.36 6.23 2.37 6.25 2.38 6.27C2.38 6.29 2.4 6.32 2.41 6.33C2.46 6.38 2.49 6.42 2.49 6.45C2.5 6.46 2.51 6.48 2.52 6.49C2.54 6.5 2.55 6.52 2.55 6.53C2.55 6.54 2.56 6.56 2.57 6.57C2.58 6.58 2.6 6.6 2.61 6.62C2.63 6.66 2.67 6.72 2.7 6.75C2.72 6.76 2.73 6.78 2.73 6.8C2.73 6.82 2.77 6.89 2.81 6.92C2.82 6.93 2.83 6.96 2.84 6.97C2.84 6.99 2.85 7.01 2.87 7.02C2.89 7.04 2.89 7.06 2.89 7.08C2.89 7.11 2.9 7.12 2.92 7.13C2.94 7.14 2.96 7.15 2.97 7.16C2.98 7.19 2.99 7.2 3.04 7.28C3.06 7.31 3.07 7.34 3.07 7.35C3.07 7.35 3.08 7.36 3.1 7.37C3.11 7.38 3.13 7.39 3.13 7.41C3.13 7.43 3.15 7.45 3.16 7.46C3.17 7.47 3.18 7.49 3.18 7.5C3.18 7.51 3.19 7.53 3.21 7.54C3.23 7.55 3.24 7.57 3.25 7.59C3.25 7.61 3.26 7.63 3.27 7.63C3.28 7.64 3.29 7.65 3.29 7.67C3.29 7.68 3.32 7.71 3.35 7.75C3.45 7.85 3.43 8.02 3.32 8.08C3.31 8.09 3.3 8.1 3.29 8.13C3.29 8.15 3.28 8.18 3.26 8.19C3.24 8.2 3.23 8.22 3.23 8.23C3.23 8.24 3.21 8.28 3.18 8.31C3.16 8.33 3.14 8.37 3.14 8.38C3.14 8.39 3.12 8.41 3.11 8.42C3.09 8.43 3.07 8.45 3.07 8.47C3.07 8.49 3.05 8.51 3.03 8.53C3.01 8.55 3 8.58 3 8.59C3 8.6 2.98 8.63 2.95 8.65C2.92 8.67 2.9 8.7 2.9 8.72C2.89 8.74 2.88 8.76 2.87 8.77C2.85 8.78 2.84 8.8 2.84 8.82C2.84 8.83 2.83 8.85 2.81 8.87C2.79 8.89 2.77 8.91 2.77 8.92C2.77 8.94 2.73 9 2.69 9.04C2.67 9.05 2.66 9.07 2.66 9.08C2.66 9.09 2.65 9.11 2.64 9.12C2.63 9.13 2.61 9.15 2.61 9.17C2.6 9.18 2.59 9.21 2.57 9.23C2.5 9.3 2.5 9.31 2.5 9.33C2.5 9.35 2.48 9.39 2.46 9.39C2.45 9.39 2.44 9.4 2.43 9.42C2.43 9.44 2.42 9.46 2.41 9.47C2.4 9.47 2.39 9.49 2.38 9.51C2.35 9.57 2.31 9.62 2.29 9.63C2.28 9.63 2.27 9.65 2.26 9.68C2.26 9.71 2.25 9.73 2.23 9.74C2.22 9.75 2.2 9.77 2.2 9.78C2.19 9.8 2.17 9.83 2.14 9.86C2.12 9.88 2.1 9.91 2.1 9.92C2.1 9.95 2.09 9.97 2.06 9.98C2.05 9.99 2.03 10.01 2.03 10.03C2.03 10.05 2.01 10.07 1.99 10.09C1.98 10.11 1.96 10.13 1.96 10.14C1.96 10.15 1.94 10.18 1.91 10.21C1.88 10.24 1.86 10.28 1.86 10.29C1.86 10.3 1.85 10.32 1.83 10.32C1.82 10.33 1.8 10.36 1.8 10.38C1.8 10.4 1.78 10.42 1.76 10.43C1.74 10.45 1.73 10.47 1.73 10.48C1.73 10.49 1.72 10.51 1.66 10.58C1.64 10.61 1.63 10.63 1.63 10.64C1.63 10.65 1.61 10.66 1.6 10.67C1.58 10.68 1.57 10.7 1.57 10.72C1.57 10.75 1.57 10.76 1.54 10.78C1.52 10.79 1.51 10.81 1.51 10.83C1.51 10.84 1.5 10.87 1.48 10.88C1.46 10.9 1.45 10.92 1.45 10.92C1.45 10.95 1.41 11.01 1.38 11.02C1.36 11.04 1.35 11.05 1.34 11.08C1.33 11.11 1.32 11.13 1.31 11.13C1.3 11.14 1.29 11.15 1.28 11.18C1.27 11.2 1.26 11.22 1.25 11.24C1.21 11.28 1.17 11.32 1.17 11.34C1.17 11.35 1.16 11.37 1.15 11.37C1.13 11.38 1.12 11.41 1.11 11.43C1.1 11.45 1.09 11.47 1.08 11.48C1.06 11.49 1.05 11.51 1.05 11.53C1.04 11.54 1.02 11.58 0.99 11.61C0.95 11.65 0.93 11.68 0.93 11.69C0.93 11.7 0.93 11.72 0.92 11.72C0.91 11.73 0.89 11.75 0.88 11.77C0.87 11.8 0.85 11.82 0.84 11.83C0.84 11.83 0.83 11.84 0.83 11.85C0.83 11.86 0.82 11.87 0.8 11.89C0.79 11.9 0.77 11.93 0.77 11.94C0.77 11.96 0.75 11.98 0.73 11.99C0.71 12 0.7 12.02 0.7 12.04C0.7 12.06 0.69 12.08 0.67 12.1C0.66 12.11 0.63 12.14 0.61 12.17C0.6 12.2 0.57 12.22 0.56 12.23C0.54 12.24 0.53 12.25 0.53 12.27C0.53 12.31 0.53 12.33 0.5 12.34C0.48 12.35 0.47 12.37 0.47 12.39C0.46 12.4 0.44 12.44 0.41 12.47C0.39 12.5 0.37 12.54 0.37 12.55C0.37 12.56 0.36 12.57 0.34 12.58C0.33 12.58 0.31 12.6 0.3 12.63C0.3 12.66 0.28 12.69 0.27 12.7C0.25 12.7 0.24 12.72 0.24 12.74C0.23 12.76 0.21 12.79 0.18 12.82C0.16 12.85 0.14 12.88 0.14 12.89C0.14 12.9 0.13 12.92 0.11 12.93C0.1 12.94 0.08 12.96 0.08 12.97C0.07 13.01 0.04 13.04 0.02 13.04C0.01 13.04 0 13.04 0 13.05C0 13.07 2.49 13.08 2.54 13.06C2.56 13.05 2.57 13.04 2.57 13.01C2.58 13 2.59 12.97 2.61 12.95C2.63 12.94 2.64 12.91 2.64 12.9C2.64 12.89 2.67 12.86 2.69 12.83C2.72 12.8 2.75 12.77 2.75 12.75C2.76 12.73 2.77 12.72 2.78 12.71C2.79 12.7 2.8 12.68 2.81 12.66C2.81 12.64 2.82 12.62 2.84 12.61C2.86 12.6 2.87 12.59 2.87 12.58C2.87 12.57 2.89 12.54 2.91 12.51C2.92 12.49 2.94 12.46 2.94 12.46C2.94 12.46 2.95 12.45 2.96 12.45C2.97 12.44 2.98 12.43 2.99 12.41C2.99 12.39 3 12.37 3.02 12.35C3.03 12.34 3.04 12.31 3.05 12.3C3.05 12.29 3.06 12.27 3.07 12.26C3.08 12.26 3.1 12.23 3.1 12.21C3.1 12.18 3.11 12.16 3.13 12.15C3.15 12.14 3.16 12.12 3.16 12.1C3.17 12.07 3.18 12.05 3.22 12.03C3.24 12.01 3.26 11.99 3.27 11.97C3.28 11.92 3.28 11.91 3.3 11.91C3.31 11.9 3.33 11.89 3.33 11.86C3.34 11.83 3.35 11.81 3.37 11.81C3.38 11.8 3.39 11.79 3.39 11.77C3.4 11.75 3.41 11.73 3.42 11.72C3.43 11.72 3.44 11.71 3.44 11.7C3.44 11.69 3.45 11.68 3.47 11.66C3.48 11.65 3.5 11.62 3.5 11.61C3.51 11.59 3.52 11.57 3.53 11.56C3.55 11.56 3.56 11.55 3.56 11.54C3.56 11.51 3.59 11.46 3.63 11.42C3.66 11.39 3.67 11.36 3.68 11.34C3.68 11.32 3.69 11.3 3.7 11.3C3.71 11.3 3.73 11.28 3.73 11.26C3.74 11.24 3.76 11.2 3.79 11.18C3.81 11.15 3.83 11.11 3.84 11.09C3.85 11.06 3.87 11.02 3.9 10.98C3.93 10.95 3.95 10.92 3.95 10.91C3.95 10.9 3.97 10.88 3.98 10.86C4 10.84 4.02 10.82 4.02 10.8C4.03 10.79 4.04 10.77 4.05 10.76C4.07 10.75 4.08 10.74 4.08 10.72C4.08 10.7 4.14 10.62 4.18 10.59C4.19 10.59 4.2 10.57 4.2 10.56C4.2 10.54 4.21 10.51 4.23 10.49C4.24 10.47 4.26 10.45 4.26 10.44C4.26 10.43 4.27 10.42 4.28 10.42C4.29 10.42 4.3 10.41 4.3 10.4C4.3 10.39 4.31 10.37 4.33 10.35C4.34 10.33 4.36 10.31 4.36 10.29C4.37 10.27 4.38 10.26 4.4 10.25C4.41 10.24 4.43 10.23 4.43 10.21C4.43 10.19 4.45 10.15 4.47 10.13C4.48 10.12 4.49 10.11 4.49 10.11C4.49 10.08 4.55 10.01 4.57 10C4.59 10 4.59 9.99 4.59 9.96C4.59 9.92 4.61 9.89 4.64 9.85C4.65 9.84 4.66 9.82 4.67 9.81C4.68 9.79 4.69 9.79 4.71 9.8C4.72 9.81 4.74 9.83 4.76 9.84C4.78 9.85 4.79 9.87 4.8 9.89C4.8 9.9 4.82 9.93 4.83 9.94C4.84 9.96 4.86 9.97 4.86 9.98C4.86 9.99 4.88 10.03 4.91 10.06C4.94 10.09 4.96 10.13 4.97 10.14C4.97 10.16 4.98 10.18 5 10.19C5.01 10.2 5.02 10.22 5.03 10.25C5.03 10.28 5.04 10.29 5.06 10.3C5.08 10.3 5.09 10.31 5.09 10.32C5.09 10.34 5.11 10.36 5.16 10.42C5.18 10.45 5.19 10.48 5.2 10.5C5.2 10.52 5.21 10.53 5.23 10.54C5.25 10.55 5.25 10.56 5.25 10.59C5.25 10.62 5.26 10.64 5.28 10.65C5.3 10.66 5.37 10.73 5.37 10.75C5.37 10.75 5.38 10.77 5.4 10.8C5.42 10.82 5.43 10.84 5.43 10.86C5.43 10.87 5.44 10.88 5.46 10.89C5.48 10.91 5.51 10.96 5.54 11.02C5.55 11.04 5.57 11.05 5.57 11.06C5.58 11.06 5.6 11.08 5.61 11.1C5.62 11.12 5.63 11.15 5.64 11.16C5.65 11.17 5.66 11.19 5.66 11.2C5.66 11.21 5.69 11.24 5.72 11.27C5.74 11.3 5.77 11.34 5.77 11.35C5.77 11.36 5.79 11.38 5.81 11.4C5.83 11.42 5.84 11.45 5.84 11.46C5.84 11.47 5.85 11.48 5.86 11.49C5.87 11.5 5.9 11.53 5.91 11.56C5.93 11.59 5.95 11.63 5.97 11.64C5.99 11.65 6 11.68 6.01 11.7C6.01 11.72 6.02 11.74 6.03 11.74C6.04 11.74 6.05 11.76 6.06 11.78C6.07 11.83 6.08 11.85 6.1 11.86C6.11 11.87 6.11 11.88 6.11 11.89C6.11 11.9 6.13 11.92 6.15 11.94C6.16 11.95 6.18 11.98 6.18 11.99C6.18 12.02 6.19 12.04 6.2 12.04C6.21 12.04 6.22 12.05 6.23 12.06C6.24 12.08 6.25 12.1 6.27 12.11C6.28 12.12 6.29 12.15 6.29 12.16C6.29 12.18 6.3 12.19 6.32 12.2C6.33 12.21 6.35 12.23 6.35 12.25C6.36 12.27 6.39 12.31 6.41 12.34C6.44 12.36 6.46 12.4 6.46 12.41C6.46 12.42 6.47 12.44 6.49 12.45C6.5 12.45 6.52 12.48 6.52 12.5C6.53 12.53 6.54 12.54 6.55 12.55C6.56 12.55 6.58 12.57 6.58 12.59C6.59 12.62 6.62 12.65 6.64 12.68C6.67 12.7 6.69 12.73 6.69 12.74C6.69 12.75 6.71 12.78 6.72 12.8C6.74 12.81 6.75 12.84 6.75 12.85C6.75 12.87 6.76 12.88 6.79 12.9C6.81 12.91 6.82 12.92 6.82 12.95C6.83 12.97 6.84 12.99 6.85 13C6.9 13.05 6.92 13.07 6.92 13.09C6.93 13.12 6.94 13.12 8.13 13.12C9.33 13.12 9.42 13.12 9.4 13.1C9.39 13.09 9.39 13.08 9.39 13.07C9.39 13.06 9.37 13.04 9.36 13.03C9.34 13.01 9.32 12.99 9.32 12.96C9.32 12.94 9.31 12.92 9.3 12.92C9.28 12.92 9.24 12.86 9.21 12.8C9.2 12.77 9.18 12.75 9.18 12.75C9.17 12.75 9.16 12.74 9.15 12.72C9.14 12.68 9.13 12.67 9.07 12.6C9.06 12.58 9.04 12.56 9.04 12.54C9.03 12.53 9.02 12.51 9.01 12.51C9 12.5 8.98 12.48 8.98 12.45C8.97 12.43 8.96 12.41 8.95 12.41C8.94 12.41 8.93 12.39 8.92 12.36C8.9 12.34 8.88 12.3 8.85 12.28C8.83 12.26 8.81 12.24 8.81 12.22C8.81 12.21 8.8 12.18 8.78 12.17C8.76 12.15 8.75 12.12 8.75 12.11C8.75 12.1 8.73 12.08 8.71 12.06C8.68 12.02 8.64 11.95 8.63 11.9C8.62 11.89 8.61 11.87 8.61 11.87C8.6 11.87 8.58 11.86 8.57 11.84C8.56 11.82 8.55 11.79 8.54 11.78C8.53 11.77 8.52 11.75 8.52 11.73C8.52 11.72 8.5 11.71 8.49 11.7C8.48 11.7 8.46 11.68 8.45 11.66C8.45 11.64 8.43 11.62 8.42 11.61C8.41 11.6 8.4 11.58 8.4 11.57C8.4 11.56 8.38 11.53 8.35 11.5C8.32 11.47 8.29 11.43 8.29 11.41C8.29 11.39 8.27 11.37 8.26 11.37C8.25 11.36 8.23 11.34 8.23 11.32C8.22 11.3 8.2 11.27 8.18 11.25C8.17 11.23 8.16 11.22 8.16 11.21C8.16 11.2 8.15 11.19 8.14 11.18C8.09 11.13 8.06 11.09 8.06 11.07C8.05 11.05 8.04 11.03 8.02 11.01C8 10.99 7.99 10.97 7.99 10.95C7.99 10.92 7.99 10.91 7.96 10.91C7.94 10.9 7.92 10.88 7.9 10.84C7.89 10.81 7.87 10.78 7.86 10.77C7.85 10.76 7.83 10.73 7.83 10.71C7.82 10.69 7.81 10.67 7.8 10.67C7.78 10.66 7.77 10.64 7.76 10.61C7.76 10.59 7.74 10.57 7.72 10.56C7.71 10.55 7.7 10.53 7.7 10.52C7.7 10.51 7.69 10.5 7.68 10.5C7.67 10.5 7.66 10.49 7.66 10.47C7.66 10.46 7.64 10.44 7.62 10.42C7.6 10.4 7.59 10.38 7.59 10.36C7.59 10.34 7.59 10.33 7.57 10.31C7.55 10.31 7.54 10.29 7.54 10.28C7.54 10.28 7.53 10.26 7.51 10.25C7.5 10.23 7.49 10.21 7.48 10.19C7.48 10.18 7.46 10.16 7.45 10.15C7.44 10.14 7.42 10.12 7.42 10.11C7.42 10.09 7.4 10.07 7.38 10.05C7.37 10.03 7.35 10.01 7.35 10C7.35 9.99 7.34 9.98 7.33 9.97C7.32 9.96 7.31 9.94 7.31 9.92C7.31 9.89 7.3 9.88 7.27 9.85C7.25 9.84 7.24 9.83 7.24 9.81C7.24 9.8 7.22 9.77 7.19 9.74C7.16 9.71 7.14 9.68 7.14 9.67C7.14 9.66 7.13 9.64 7.11 9.63C7.09 9.61 7.08 9.59 7.08 9.57C7.08 9.54 7.07 9.52 7.05 9.52C7.03 9.5 6.95 9.4 6.95 9.38C6.95 9.37 6.94 9.36 6.93 9.35C6.91 9.34 6.9 9.32 6.9 9.31C6.9 9.3 6.89 9.28 6.88 9.27C6.87 9.26 6.85 9.24 6.85 9.22C6.83 9.19 6.82 9.17 6.76 9.11C6.75 9.1 6.73 9.07 6.73 9.06C6.73 9.04 6.71 9.01 6.7 9C6.68 8.99 6.67 8.97 6.67 8.96C6.67 8.95 6.65 8.92 6.62 8.89C6.59 8.85 6.57 8.82 6.57 8.81C6.57 8.8 6.55 8.78 6.54 8.77C6.52 8.75 6.5 8.73 6.5 8.71C6.49 8.69 6.48 8.67 6.47 8.66C6.45 8.65 6.44 8.63 6.44 8.62C6.44 8.61 6.42 8.57 6.39 8.54C6.36 8.51 6.33 8.47 6.33 8.46C6.33 8.45 6.32 8.43 6.3 8.42C6.28 8.4 6.27 8.39 6.27 8.37C6.27 8.34 6.25 8.3 6.23 8.3C6.23 8.3 6.21 8.29 6.2 8.26C6.19 8.24 6.17 8.2 6.15 8.18C6.12 8.15 6.1 8.12 6.1 8.1C6.1 8.08 6.08 8.07 6.07 8.06C6.05 8.06 6.04 8.04 6.04 8.02C6.03 7.99 6.01 7.96 5.98 7.93C5.96 7.9 5.93 7.86 5.92 7.83C5.91 7.8 5.9 7.78 5.89 7.78C5.89 7.78 5.88 7.77 5.88 7.77C5.88 7.76 5.87 7.74 5.85 7.72C5.83 7.7 5.81 7.68 5.81 7.67C5.81 7.65 5.8 7.63 5.78 7.61C5.76 7.59 5.75 7.57 5.75 7.55C5.75 7.52 5.74 7.51 5.72 7.51C5.69 7.49 5.65 7.46 5.65 7.43C5.65 7.42 5.64 7.39 5.62 7.37C5.6 7.35 5.58 7.32 5.58 7.31C5.58 7.3 5.57 7.28 5.55 7.27C5.52 7.25 5.52 7.23 5.52 7.21C5.52 7.18 5.51 7.17 5.49 7.15C5.47 7.15 5.45 7.13 5.45 7.12C5.45 7.12 5.44 7.1 5.43 7.09C5.42 7.08 5.41 7.07 5.41 7.06C5.41 7.05 5.4 7.04 5.39 7.02C5.37 7.01 5.35 6.98 5.35 6.96C5.34 6.94 5.33 6.92 5.32 6.91C5.3 6.9 5.23 6.8 5.23 6.78C5.23 6.77 5.22 6.76 5.21 6.75C5.19 6.74 5.18 6.72 5.17 6.7C5.17 6.68 5.15 6.65 5.14 6.65C5.13 6.64 5.12 6.63 5.12 6.61C5.12 6.6 5.11 6.59 5.1 6.57C5.03 6.51 5 6.46 5 6.44C5 6.43 4.99 6.41 4.98 6.41C4.96 6.4 4.95 6.38 4.94 6.35C4.93 6.33 4.92 6.31 4.91 6.3C4.9 6.29 4.89 6.28 4.88 6.27C4.88 6.26 4.87 6.24 4.86 6.23C4.8 6.16 4.77 6.12 4.77 6.09C4.77 6.08 4.76 6.07 4.75 6.06C4.72 6.05 4.71 6.03 4.71 5.98C4.71 5.96 4.7 5.95 4.68 5.95C4.65 5.94 4.61 5.88 4.6 5.83C4.59 5.81 4.58 5.78 4.57 5.76C4.55 5.74 4.54 5.73 4.54 5.72C4.54 5.72 4.53 5.71 4.52 5.7C4.5 5.69 4.49 5.68 4.48 5.65C4.48 5.62 4.47 5.6 4.46 5.6C4.45 5.6 4.43 5.58 4.43 5.56C4.42 5.54 4.41 5.52 4.4 5.52C4.38 5.5 4.32 5.42 4.32 5.4C4.32 5.39 4.3 5.37 4.28 5.35C4.26 5.33 4.25 5.31 4.25 5.29C4.25 5.28 4.24 5.26 4.22 5.26C4.21 5.25 4.19 5.22 4.19 5.2C4.19 5.18 4.17 5.16 4.14 5.13C4.11 5.11 4.09 5.08 4.09 5.06C4.08 5.05 4.07 5.02 4.05 5C4.03 4.98 4.02 4.96 4.02 4.94C4.02 4.93 4.01 4.91 4.01 4.91C3.99 4.91 3.95 4.87 3.95 4.85C3.95 4.84 3.93 4.81 3.91 4.78C3.88 4.75 3.86 4.72 3.86 4.71C3.86 4.7 3.85 4.68 3.83 4.67C3.81 4.65 3.8 4.62 3.8 4.6C3.79 4.58 3.78 4.57 3.77 4.56C3.76 4.56 3.74 4.54 3.73 4.53C3.72 4.51 3.72 4.5 3.71 4.49C3.71 4.49 3.7 4.47 3.68 4.45C3.67 4.42 3.65 4.4 3.64 4.39C3.63 4.38 3.62 4.36 3.62 4.35C3.62 4.35 3.6 4.32 3.59 4.3C3.57 4.28 3.56 4.26 3.56 4.25C3.56 4.24 3.55 4.23 3.53 4.22C3.52 4.21 3.51 4.19 3.51 4.18C3.51 4.18 3.5 4.16 3.48 4.15C3.46 4.13 3.45 4.11 3.44 4.09C3.44 4.07 3.43 4.05 3.42 4.05C3.41 4.05 3.39 4.03 3.39 4.01C3.38 3.99 3.36 3.95 3.33 3.92C3.29 3.87 3.28 3.85 3.27 3.81C3.27 3.77 3.27 3.76 3.25 3.75C3.23 3.74 3.22 3.73 3.21 3.72C3.2 3.7 3.19 3.69 3.19 3.68C3.14 3.62 3.11 3.57 3.1 3.55C3.1 3.53 3.09 3.52 3.08 3.51C3.06 3.51 3.05 3.49 3.04 3.46C3.03 3.44 3.02 3.41 3.01 3.41C3 3.4 2.99 3.38 2.99 3.38C2.99 3.37 2.98 3.35 2.96 3.35C2.95 3.34 2.93 3.31 2.93 3.3C2.92 3.28 2.9 3.26 2.89 3.25C2.88 3.24 2.87 3.22 2.87 3.21C2.87 3.19 2.84 3.15 2.81 3.12C2.78 3.09 2.76 3.06 2.76 3.04C2.76 3.03 2.75 3.01 2.73 3C2.71 2.98 2.69 2.96 2.69 2.95C2.69 2.93 2.67 2.91 2.66 2.9C2.64 2.89 2.63 2.87 2.63 2.86C2.63 2.85 2.61 2.82 2.59 2.79C2.56 2.76 2.54 2.73 2.54 2.72C2.54 2.7 2.42 2.7 1.29 2.7C0.43 2.7 0.04 2.7 0.04 2.71" id="e2PO8Tt3CH"></path><path d="M7.9 6.11C7.88 6.11 7.84 6.12 7.8 6.12C7.75 6.12 7.73 6.13 7.71 6.14C7.69 6.15 7.66 6.17 7.63 6.17C7.6 6.18 7.55 6.2 7.53 6.21C7.5 6.22 7.47 6.24 7.46 6.24C7.46 6.24 7.44 6.25 7.43 6.26C7.42 6.27 7.4 6.28 7.38 6.28C7.34 6.29 7.21 6.43 7.21 6.46C7.21 6.47 7.18 6.5 7.16 6.53C7.11 6.58 7.07 6.65 7.08 6.69C7.09 6.7 7.08 6.72 7.06 6.74C7.06 6.74 7.05 6.75 7.04 6.77C7.04 6.88 7.04 6.95 7.04 6.96C7.04 7.14 7.04 7.16 7.07 7.19C7.08 7.21 7.09 7.25 7.09 7.29C7.1 7.33 7.11 7.35 7.13 7.37C7.15 7.39 7.16 7.41 7.16 7.42C7.16 7.43 7.2 7.48 7.25 7.53C7.3 7.58 7.34 7.63 7.34 7.63C7.34 7.64 7.35 7.64 7.36 7.64C7.36 7.64 7.38 7.65 7.4 7.67C7.43 7.68 7.46 7.7 7.48 7.71C7.51 7.71 7.53 7.73 7.54 7.73C7.57 7.76 7.7 7.82 7.75 7.83C7.78 7.83 7.81 7.84 7.82 7.85C7.84 7.87 7.87 7.87 7.89 7.87C7.92 7.87 7.96 7.89 7.99 7.9C8.02 7.91 8.06 7.93 8.08 7.92C8.1 7.92 8.12 7.93 8.14 7.94C8.15 7.94 8.19 7.95 8.22 7.95C8.27 7.95 8.29 7.95 8.3 7.97C8.3 7.98 8.32 7.99 8.35 7.99C8.39 7.99 8.4 8 8.42 8.03C8.43 8.05 8.44 8.05 8.53 8.06C8.53 8.06 8.56 8.06 8.62 8.06C8.65 8.1 8.67 8.11 8.68 8.12C8.84 8.27 8.84 8.26 8.83 8.42C8.82 8.55 8.73 8.69 8.63 8.71C8.61 8.71 8.6 8.72 8.59 8.73C8.59 8.74 8.55 8.76 8.51 8.78C8.51 8.79 8.48 8.8 8.43 8.82L8.21 8.82L7.99 8.81C7.96 8.79 7.94 8.78 7.94 8.78C7.91 8.76 7.89 8.74 7.88 8.73C7.88 8.72 7.86 8.71 7.84 8.71C7.81 8.71 7.79 8.69 7.77 8.67C7.75 8.65 7.73 8.64 7.73 8.64C7.72 8.64 7.72 8.63 7.71 8.62C7.71 8.61 7.7 8.59 7.68 8.59C7.67 8.58 7.65 8.56 7.65 8.55C7.65 8.54 7.63 8.51 7.62 8.49C7.6 8.47 7.59 8.44 7.59 8.42C7.59 8.39 7.59 8.37 7.57 8.35C7.55 8.33 7.54 8.31 7.54 8.29C7.54 8.21 7.47 8.17 7.43 8.22C7.4 8.25 7.4 8.25 7.22 8.25C7.06 8.26 7.03 8.26 7 8.28C6.98 8.29 6.95 8.3 6.94 8.3C6.92 8.31 6.92 8.37 6.94 8.41C6.95 8.43 6.96 8.47 6.97 8.51C6.98 8.65 6.99 8.68 7.01 8.69C7.02 8.7 7.04 8.74 7.06 8.77C7.08 8.81 7.11 8.86 7.12 8.88C7.14 8.9 7.15 8.92 7.15 8.93C7.15 8.96 7.28 9.09 7.32 9.1C7.33 9.11 7.37 9.13 7.4 9.16C7.43 9.18 7.46 9.21 7.47 9.21C7.47 9.21 7.5 9.22 7.53 9.23C7.56 9.25 7.61 9.26 7.65 9.27C7.7 9.27 7.71 9.28 7.73 9.29C7.74 9.31 7.75 9.32 7.84 9.32C7.91 9.33 7.95 9.33 7.96 9.34C7.99 9.36 8.44 9.36 8.46 9.34C8.47 9.33 8.52 9.33 8.59 9.32C8.67 9.32 8.7 9.31 8.71 9.3C8.73 9.28 8.77 9.27 8.95 9.22C9 9.21 9.03 9.19 9.04 9.17C9.07 9.15 9.15 9.09 9.16 9.09C9.18 9.09 9.25 9 9.26 8.97C9.27 8.95 9.29 8.93 9.31 8.91C9.32 8.9 9.33 8.87 9.33 8.86C9.33 8.85 9.34 8.83 9.36 8.82C9.37 8.81 9.38 8.8 9.38 8.78C9.39 8.77 9.4 8.75 9.41 8.73C9.48 8.64 9.48 8.08 9.41 7.99C9.4 7.98 9.39 7.96 9.39 7.95C9.39 7.94 9.38 7.91 9.36 7.89C9.35 7.87 9.33 7.84 9.33 7.83C9.32 7.81 9.31 7.79 9.3 7.79C9.27 7.78 9.23 7.73 9.21 7.7C9.2 7.69 9.19 7.67 9.18 7.67C9.17 7.67 9.16 7.66 9.15 7.65C9.14 7.63 9.12 7.62 9.1 7.62C9.08 7.61 9.05 7.6 9.04 7.58C9.04 7.57 9.02 7.56 9 7.55C8.98 7.54 8.97 7.53 8.97 7.53C8.97 7.52 8.95 7.52 8.94 7.52C8.89 7.52 8.82 7.49 8.81 7.46C8.8 7.45 8.79 7.44 8.76 7.44C8.73 7.44 8.69 7.43 8.66 7.42C8.63 7.4 8.6 7.39 8.59 7.39C8.58 7.4 8.55 7.4 8.54 7.39C8.52 7.38 8.48 7.38 8.45 7.37C8.41 7.37 8.38 7.37 8.36 7.35C8.35 7.34 8.32 7.33 8.3 7.33C8.27 7.33 8.26 7.32 8.24 7.3C8.21 7.27 8.21 7.27 8.1 7.26C8.02 7.26 7.98 7.25 7.97 7.24C7.96 7.23 7.93 7.22 7.9 7.21C7.87 7.2 7.84 7.19 7.83 7.18C7.82 7.16 7.8 7.15 7.79 7.15C7.75 7.15 7.67 7.07 7.66 7.02C7.65 6.99 7.64 6.97 7.63 6.96C7.61 6.94 7.61 6.89 7.64 6.85C7.71 6.75 7.72 6.73 7.75 6.72C7.77 6.72 7.79 6.71 7.79 6.7C7.79 6.69 7.81 6.68 7.84 6.68C7.86 6.67 7.89 6.65 7.91 6.64C7.93 6.62 7.94 6.62 8.17 6.62C8.18 6.62 8.26 6.62 8.41 6.62C8.44 6.64 8.46 6.65 8.47 6.65C8.5 6.67 8.53 6.69 8.53 6.7C8.54 6.71 8.54 6.72 8.55 6.72C8.56 6.72 8.65 6.8 8.65 6.82C8.65 6.83 8.66 6.84 8.68 6.85C8.71 6.86 8.72 6.88 8.72 6.92C8.72 6.93 8.72 6.96 8.73 6.97C8.74 6.98 8.76 7 8.76 7.03C8.76 7.03 8.77 7.05 8.77 7.07C8.81 7.07 8.83 7.07 8.84 7.07C8.9 7.08 8.91 7.07 8.93 7.05C8.93 7.05 8.94 7.04 8.95 7.02C9.07 7.02 9.14 7.02 9.16 7.02C9.3 7.02 9.37 7.02 9.37 7.01C9.4 6.99 9.39 6.88 9.36 6.86C9.34 6.84 9.34 6.82 9.33 6.74C9.32 6.66 9.32 6.65 9.29 6.62C9.28 6.61 9.26 6.59 9.26 6.58C9.26 6.58 9.25 6.56 9.24 6.54C9.23 6.53 9.22 6.51 9.22 6.5C9.22 6.45 8.94 6.23 8.87 6.23C8.86 6.23 8.84 6.21 8.83 6.2C8.81 6.18 8.78 6.17 8.76 6.17C8.74 6.17 8.72 6.16 8.7 6.15C8.67 6.12 8.66 6.12 8.58 6.12C8.53 6.12 8.49 6.12 8.47 6.11C8.43 6.08 7.94 6.08 7.9 6.11M10.04 6.13C10.03 6.15 10.04 9.26 10.05 9.26C10.08 9.27 10.56 9.27 10.6 9.26C10.6 9.26 10.62 9.26 10.64 9.26C10.64 8.63 10.64 8.29 10.64 8.22C10.63 7.64 10.63 7.17 10.63 7.16C10.64 7.16 10.65 7.15 10.66 7.14C10.71 7.12 10.73 7.15 10.73 7.23C10.73 7.27 10.74 7.3 10.75 7.32C10.77 7.34 10.79 7.48 10.79 7.55C10.79 7.58 10.8 7.59 10.81 7.6C10.83 7.61 10.84 7.63 10.84 7.69C10.85 7.74 10.86 7.78 10.87 7.79C10.88 7.8 10.89 7.83 10.89 7.87C10.91 8.02 10.92 8.06 10.93 8.08C10.94 8.09 10.95 8.13 10.96 8.16C10.96 8.19 10.97 8.23 10.98 8.24C11 8.27 11.02 8.36 11.03 8.49C11.03 8.53 11.04 8.56 11.05 8.57C11.07 8.58 11.08 8.62 11.08 8.66C11.08 8.7 11.09 8.73 11.11 8.75C11.12 8.77 11.13 8.79 11.13 8.81C11.13 8.84 11.15 8.93 11.17 8.99C11.18 9.01 11.19 9.05 11.19 9.08C11.19 9.13 11.2 9.14 11.21 9.16C11.22 9.17 11.24 9.19 11.24 9.21C11.25 9.27 11.24 9.27 11.55 9.27C11.86 9.27 11.86 9.27 11.87 9.22C11.87 9.2 11.88 9.17 11.89 9.16C11.91 9.15 11.91 9.12 11.92 9.07C11.92 9.03 11.93 8.99 11.94 8.98C11.94 8.97 11.95 8.95 11.95 8.93C11.95 8.91 11.95 8.89 11.96 8.88C11.97 8.86 11.98 8.83 11.98 8.79C11.98 8.73 11.98 8.72 12 8.7C12.03 8.68 12.03 8.67 12.03 8.61C12.03 8.55 12.03 8.54 12.06 8.52C12.08 8.5 12.08 8.49 12.08 8.46C12.08 8.43 12.1 8.27 12.11 8.25C12.11 8.24 12.12 8.22 12.13 8.21C12.14 8.2 12.15 8.16 12.15 8.13C12.15 8.1 12.15 8.08 12.17 8.06C12.19 8.04 12.2 8.02 12.2 7.96C12.21 7.84 12.23 7.76 12.24 7.74C12.25 7.72 12.26 7.69 12.26 7.67C12.26 7.64 12.27 7.61 12.29 7.58C12.3 7.55 12.31 7.51 12.31 7.49C12.31 7.47 12.32 7.44 12.33 7.41C12.34 7.38 12.34 7.34 12.34 7.32C12.34 7.3 12.35 7.27 12.36 7.26C12.37 7.25 12.38 7.21 12.38 7.17C12.39 7.09 12.39 7.09 12.42 7.09C12.47 7.09 12.47 7.05 12.47 8.19C12.47 8.26 12.47 8.62 12.47 9.26C12.5 9.26 12.51 9.26 12.51 9.26C12.54 9.27 12.67 9.27 12.81 9.27C12.83 9.27 12.91 9.27 13.06 9.26L13.07 7.69L13.07 6.12L12.59 6.12L12.12 6.13C12.12 6.16 12.11 6.17 12.11 6.18C12.11 6.21 12.1 6.23 12.09 6.24C12.08 6.25 12.07 6.26 12.08 6.28C12.08 6.29 12.08 6.33 12.07 6.37C12.06 6.4 12.05 6.45 12.05 6.48C12.04 6.51 12.03 6.54 12.02 6.55C12.01 6.56 12 6.6 12 6.64C11.99 6.68 11.98 6.71 11.97 6.73C11.95 6.75 11.94 6.79 11.93 6.86C11.93 6.93 11.92 6.96 11.9 6.98C11.89 6.99 11.88 7.02 11.88 7.06C11.88 7.12 11.88 7.13 11.85 7.15C11.82 7.17 11.82 7.17 11.82 7.29C11.81 7.38 11.8 7.43 11.79 7.45C11.78 7.47 11.77 7.51 11.76 7.54C11.76 7.56 11.75 7.59 11.73 7.6C11.72 7.62 11.71 7.64 11.7 7.69C11.69 7.82 11.68 7.87 11.67 7.89C11.66 7.91 11.65 7.95 11.64 7.98C11.64 8.04 11.63 8.06 11.61 8.07C11.59 8.08 11.59 8.09 11.59 8.15C11.59 8.2 11.59 8.22 11.57 8.23C11.54 8.26 11.52 8.23 11.52 8.15C11.52 8.09 11.51 8.08 11.49 8.07C11.47 8.05 11.47 8.04 11.46 7.98C11.46 7.95 11.45 7.9 11.44 7.89C11.43 7.88 11.42 7.85 11.42 7.83C11.42 7.77 11.38 7.63 11.36 7.62C11.35 7.61 11.34 7.58 11.34 7.54C11.33 7.51 11.32 7.47 11.31 7.45C11.3 7.42 11.29 7.37 11.29 7.29C11.28 7.21 11.28 7.16 11.27 7.16C11.26 7.15 11.25 7.14 11.24 7.13C11.23 7.12 11.22 7.1 11.22 7.08C11.22 7.06 11.21 7.04 11.2 7.03C11.19 7.01 11.18 6.99 11.18 6.93C11.16 6.79 11.16 6.76 11.14 6.73C11.12 6.71 11.11 6.67 11.11 6.64C11.1 6.6 11.09 6.56 11.08 6.55C11.07 6.53 11.03 6.39 11.03 6.34C11.03 6.32 11.03 6.3 11.02 6.29C11 6.27 11 6.24 10.99 6.2C10.99 6.19 10.99 6.17 10.99 6.13C10.71 6.12 10.55 6.12 10.52 6.12C10.26 6.12 10.05 6.12 10.04 6.13M13.53 6.13C13.51 6.13 13.51 6.65 13.53 6.66C13.54 6.66 13.74 6.67 13.97 6.67C14.37 6.67 14.39 6.67 14.41 6.69C14.41 6.69 14.42 6.7 14.44 6.71L14.44 7.98L14.44 9.25C14.45 9.25 14.46 9.26 14.46 9.26C14.48 9.27 14.6 9.27 14.78 9.27C14.8 9.27 14.9 9.27 15.08 9.26C15.08 8.49 15.08 8.07 15.08 7.98C15.09 6.95 15.09 6.7 15.1 6.69C15.11 6.68 15.21 6.67 15.56 6.67C15.59 6.67 15.73 6.66 16 6.66L16 6.39L16 6.13C15.26 6.13 14.85 6.13 14.77 6.13C14.1 6.12 13.54 6.13 13.53 6.13" id="l7y0elWmF"></path></defs><g><g><g><use xlink:href="#e2PO8Tt3CH" opacity="1" fill="#6bcadb" fill-opacity="1"></use><g><use xlink:href="#e2PO8Tt3CH" opacity="1" fill-opacity="0" stroke="#000000" stroke-width="1" stroke-opacity="0"></use></g></g><g><use xlink:href="#l7y0elWmF" opacity="1" fill="#080808" fill-opacity="1"></use><g><use xlink:href="#l7y0elWmF" opacity="1" fill-opacity="0" stroke="#000000" stroke-width="1" stroke-opacity="0"></use></g></g></g></g></svg>